<?xml version="1.0" standalone="no"?>
<!DOCTYPE svg PUBLIC "-//W3C//DTD SVG 20010904//EN"
  "http://www.w3.org/TR/2001/REC-SVG-20010904/DTD/svg10.dtd">
<svg height="500.000000pt" preserveAspectRatio="xMidYMid meet"
     version="1.0" viewBox="0 0 500.000000 500.000000" width="500.000000pt"
     xmlns="http://www.w3.org/2000/svg">
  <metadata>
    Created by potrace 1.11, written by Peter Selinger 2001-2013
  </metadata>
  <g fill="#000000"
     stroke="none" transform="translate(0.000000,500.000000) scale(0.100000,-0.100000)">
    <path d="M2263 4256 l-28 -24 -5 -540 -5 -541 -150 146 c-82 80 -227 220 -321
312 -271 264 -291 281 -326 281 -27 0 -52 -20 -175 -142 -137 -137 -143 -144
-143 -183 0 -38 7 -47 103 -147 77 -80 610 -627 633 -650 2 -3 -240 -5 -538
-5 l-541 0 -27 -30 -27 -30 -1 -199 c-1 -110 3 -210 9 -224 21 -55 11 -54 584
-56 292 -1 532 -2 535 -3 3 0 -165 -171 -374 -380 -456 -456 -430 -405 -279
-551 194 -185 199 -190 236 -190 43 0 51 6 265 215 97 95 258 252 357 348
l180 175 5 -537 c5 -586 4 -574 64 -587 16 -3 91 -6 167 -6 256 1 252 1 279
23 l25 21 5 543 5 543 176 -171 c479 -467 575 -558 596 -563 45 -12 72 7 207
142 128 129 136 139 136 176 0 43 -2 46 -198 247 -295 301 -527 543 -530 549
-1 4 233 7 520 7 288 -1 534 3 549 7 50 17 56 45 58 266 l1 204 -29 29 c-16
16 -40 29 -53 30 -13 0 -256 1 -541 1 l-519 1 29 27 c27 27 419 429 617 635
89 93 96 103 96 140 0 39 -6 47 -144 184 -141 140 -145 143 -181 138 -27 -4
-51 -18 -84 -50 -25 -25 -128 -125 -229 -223 -101 -98 -249 -242 -330 -321
l-147 -142 -5 540 -5 541 -28 24 c-28 24 -31 24 -237 24 -206 0 -209 0 -237
-24z m487 -1511 l104 -104 1 -147 1 -146 -104 -104 c-57 -57 -111 -104 -120
-105 -27 0 -245 -1 -264 0 -9 1 -62 47 -119 104 l-103 102 -1 145 -2 145 106
108 106 107 145 0 145 0 105 -105z"/>
  </g>
</svg>
