<svg xmlns="http://www.w3.org/2000/svg" xmlns:xlink="http://www.w3.org/1999/xlink" viewBox="0 0 507.29 442.89"><defs><style>.cls-1{fill:url(#linear-gradient);}.cls-2{fill:url(#linear-gradient-2);}.cls-3{fill:url(#linear-gradient-3);}.cls-4{fill:url(#linear-gradient-4);}.cls-5{fill:url(#linear-gradient-5);}.cls-6{fill:url(#linear-gradient-6);}.cls-7{fill:url(#linear-gradient-7);}.cls-8{fill:url(#linear-gradient-8);}.cls-9{fill:url(#linear-gradient-9);}.cls-10{fill:url(#linear-gradient-10);}.cls-11{fill:url(#linear-gradient-11);}.cls-12{fill:url(#linear-gradient-12);}.cls-13{fill:url(#linear-gradient-13);}.cls-14{fill:url(#linear-gradient-14);}.cls-15{fill:url(#linear-gradient-15);}.cls-16{fill:url(#linear-gradient-16);}.cls-17{fill:url(#linear-gradient-17);}.cls-18{fill:url(#linear-gradient-18);}.cls-19{fill:url(#linear-gradient-19);}.cls-20{fill:url(#linear-gradient-20);}.cls-21{fill:url(#linear-gradient-21);}.cls-22{fill:url(#linear-gradient-22);}.cls-23{fill:url(#linear-gradient-23);}.cls-24{fill:url(#linear-gradient-24);}.cls-25{fill:url(#linear-gradient-25);}.cls-26{fill:url(#linear-gradient-26);}.cls-27{fill:url(#linear-gradient-27);}.cls-28{fill:url(#linear-gradient-28);}.cls-29{fill:url(#linear-gradient-29);}.cls-30{fill:url(#linear-gradient-30);}.cls-31{fill:url(#linear-gradient-31);}.cls-32{fill:url(#linear-gradient-32);}.cls-33{fill:url(#linear-gradient-33);}</style><linearGradient id="linear-gradient" x1="371.37" y1="459.08" x2="472.21" y2="459.08" gradientUnits="userSpaceOnUse"><stop offset="0" stop-color="#a47353"/><stop offset="1" stop-color="#d9b38e"/></linearGradient><linearGradient id="linear-gradient-2" x1="392.16" y1="415.4" x2="472.28" y2="415.4" xlink:href="#linear-gradient"/><linearGradient id="linear-gradient-3" x1="323.79" y1="437.01" x2="426.08" y2="437.01" xlink:href="#linear-gradient"/><linearGradient id="linear-gradient-4" x1="334.78" y1="371.29" x2="389.42" y2="371.29" xlink:href="#linear-gradient"/><linearGradient id="linear-gradient-5" x1="273.47" y1="403.7" x2="374.46" y2="403.7" xlink:href="#linear-gradient"/><linearGradient id="linear-gradient-6" x1="262.31" y1="361.29" x2="348.69" y2="361.29" xlink:href="#linear-gradient"/><linearGradient id="linear-gradient-7" x1="304.92" y1="301.5" x2="328.77" y2="301.5" xlink:href="#linear-gradient"/><linearGradient id="linear-gradient-8" x1="233.66" y1="303.79" x2="302.78" y2="303.79" xlink:href="#linear-gradient"/><linearGradient id="linear-gradient-9" x1="245.95" y1="255.17" x2="291.26" y2="255.17" xlink:href="#linear-gradient"/><linearGradient id="linear-gradient-10" x1="248.53" y1="196.43" x2="283.34" y2="196.43" xlink:href="#linear-gradient"/><linearGradient id="linear-gradient-11" x1="279.58" y1="155.98" x2="301" y2="155.98" xlink:href="#linear-gradient"/><linearGradient id="linear-gradient-12" x1="306.07" y1="112.04" x2="330.66" y2="112.04" xlink:href="#linear-gradient"/><linearGradient id="linear-gradient-13" x1="290.31" y1="227.55" x2="323.69" y2="227.55" xlink:href="#linear-gradient"/><linearGradient id="linear-gradient-14" x1="307.72" y1="152.78" x2="369.44" y2="152.78" xlink:href="#linear-gradient"/><linearGradient id="linear-gradient-15" x1="334.14" y1="97.06" x2="386.55" y2="97.06" xlink:href="#linear-gradient"/><linearGradient id="linear-gradient-16" x1="432.08" y1="482.18" x2="474.9" y2="482.18" xlink:href="#linear-gradient"/><linearGradient id="linear-gradient-17" x1="499.71" y1="482.18" x2="542.52" y2="482.18" xlink:href="#linear-gradient"/><linearGradient id="linear-gradient-18" x1="502.4" y1="459.08" x2="603.24" y2="459.08" xlink:href="#linear-gradient"/><linearGradient id="linear-gradient-19" x1="502.33" y1="415.4" x2="582.45" y2="415.4" xlink:href="#linear-gradient"/><linearGradient id="linear-gradient-20" x1="548.52" y1="437.01" x2="650.82" y2="437.01" xlink:href="#linear-gradient"/><linearGradient id="linear-gradient-21" x1="585.19" y1="371.29" x2="639.82" y2="371.29" xlink:href="#linear-gradient"/><linearGradient id="linear-gradient-22" x1="600.14" y1="403.7" x2="701.14" y2="403.7" xlink:href="#linear-gradient"/><linearGradient id="linear-gradient-23" x1="625.91" y1="361.29" x2="712.3" y2="361.29" xlink:href="#linear-gradient"/><linearGradient id="linear-gradient-24" x1="645.84" y1="301.5" x2="669.68" y2="301.5" xlink:href="#linear-gradient"/><linearGradient id="linear-gradient-25" x1="671.83" y1="303.79" x2="740.95" y2="303.79" xlink:href="#linear-gradient"/><linearGradient id="linear-gradient-26" x1="683.34" y1="255.17" x2="728.65" y2="255.17" xlink:href="#linear-gradient"/><linearGradient id="linear-gradient-27" x1="691.27" y1="196.43" x2="726.07" y2="196.43" xlink:href="#linear-gradient"/><linearGradient id="linear-gradient-28" x1="673.6" y1="155.98" x2="695.03" y2="155.98" xlink:href="#linear-gradient"/><linearGradient id="linear-gradient-29" x1="643.94" y1="112.04" x2="668.53" y2="112.04" xlink:href="#linear-gradient"/><linearGradient id="linear-gradient-30" x1="650.91" y1="227.55" x2="684.3" y2="227.55" xlink:href="#linear-gradient"/><linearGradient id="linear-gradient-31" x1="605.16" y1="152.78" x2="666.89" y2="152.78" xlink:href="#linear-gradient"/><linearGradient id="linear-gradient-32" x1="588.04" y1="97.06" x2="640.46" y2="97.06" xlink:href="#linear-gradient"/><linearGradient id="linear-gradient-33" x1="439.63" y1="241" x2="534.5" y2="241" xlink:href="#linear-gradient"/></defs><title>Bronze3</title><g id="Layer_9" data-name="Layer 9"><path class="cls-1" d="M472.21,448s-6.45,19.22-45.35,23.36-55.49-4.14-55.49-4.14S397.3,447,422.2,445.91a350.86,350.86,0,0,1,50,2" transform="translate(-233.66 -61.37)"/><path class="cls-2" d="M472.21,448s2.93-20.11-29.28-42.3-50.77-22.8-50.77-22.8,10.65,27.39,36.57,43.43A294.8,294.8,0,0,0,472.21,448" transform="translate(-233.66 -61.37)"/><path class="cls-3" d="M426.08,433.71s-19.83-8.95-49.78-8.95-52.51,15.57-52.51,15.57,22.17,8.93,54.07,8.93,48.22-15.55,48.22-15.55" transform="translate(-233.66 -61.37)"/><path class="cls-4" d="M389.42,414.66s-1.61-21.7-15.9-48-38.74-38.72-38.74-38.72,2.72,23.76,18,51.78,36.69,35,36.69,35" transform="translate(-233.66 -61.37)"/><path class="cls-5" d="M374.46,412s-17.19-13.35-46.3-20.36-54.69,2.83-54.69,2.83,19.46,13.9,50.47,21.37S374.46,412,374.46,412" transform="translate(-233.66 -61.37)"/><path class="cls-6" d="M348.69,388.81s-10.7-18.94-34.85-36.66-51.53-18.53-51.53-18.53,12.58,20.33,38.29,39.2,48.09,16,48.09,16" transform="translate(-233.66 -61.37)"/><path class="cls-7" d="M323.1,349.85s7.24-19.4,5.35-47.83-18.08-48.87-18.08-48.87-7.1,21.62-5.09,51.9,17.82,44.8,17.82,44.8" transform="translate(-233.66 -61.37)"/><path class="cls-8" d="M302.78,331.47s-7.45-17.26-26.55-34.7-42.57-20.66-42.57-20.66,8.94,18.62,29.29,37.2,39.83,18.16,39.83,18.16" transform="translate(-233.66 -61.37)"/><path class="cls-9" d="M291.26,293.21s-.92-18.78-12.7-41.82S246,217.12,246,217.12s1.84,20.57,14.38,45.1,30.93,31,30.93,31" transform="translate(-233.66 -61.37)"/><path class="cls-10" d="M283.22,237.18s1.61-18.73-7-43.15-27.7-38.35-27.7-38.35-.95,20.63,8.17,46.63,26.49,34.87,26.49,34.87" transform="translate(-233.66 -61.37)"/><path class="cls-11" d="M291,200.25s8.59-16.71,9.92-42.55-11.09-46-11.09-46-8.7,18.73-10.12,46.25S291,200.25,291,200.25" transform="translate(-233.66 -61.37)"/><path class="cls-12" d="M312.16,155.82s11.2-15.09,16.72-40.38-3.47-47.18-3.47-47.18-11.64,17.06-17.51,44,4.26,43.57,4.26,43.57" transform="translate(-233.66 -61.37)"/><path class="cls-13" d="M292.24,269.11s14-12.53,24.47-36.2S322.77,186,322.77,186s-14.82,14.39-26,39.59-4.56,43.54-4.56,43.54" transform="translate(-233.66 -61.37)"/><path class="cls-14" d="M307.72,184.53s17.89-5.76,37.09-23.11S369.44,121,369.44,121s-19.39,7.11-39.82,25.59-21.9,37.91-21.9,37.91" transform="translate(-233.66 -61.37)"/><path class="cls-15" d="M334.16,132.76s16.93-8.17,33.55-28,18.84-43.4,18.84-43.4-18.22,9.7-35.93,30.82-16.46,40.57-16.46,40.57" transform="translate(-233.66 -61.37)"/><path class="cls-16" d="M474.9,460.11c0,26-42.82,54.35-42.82,40.52s42.82-31.29,42.82-40.52" transform="translate(-233.66 -61.37)"/><path class="cls-17" d="M499.71,460.11c0,26,42.81,54.35,42.81,40.52s-42.81-31.29-42.81-40.52" transform="translate(-233.66 -61.37)"/><path class="cls-18" d="M502.4,448s6.45,19.22,45.35,23.36,55.49-4.14,55.49-4.14S577.3,447,552.41,445.91a350.86,350.86,0,0,0-50,2" transform="translate(-233.66 -61.37)"/><path class="cls-19" d="M502.4,448s-2.93-20.11,29.28-42.3,50.77-22.8,50.77-22.8-10.64,27.39-36.57,43.43A295.34,295.34,0,0,1,502.4,448" transform="translate(-233.66 -61.37)"/><path class="cls-20" d="M548.52,433.71s19.84-8.95,49.78-8.95,52.52,15.57,52.52,15.57-22.17,8.93-54.07,8.93-48.23-15.55-48.23-15.55" transform="translate(-233.66 -61.37)"/><path class="cls-21" d="M585.19,414.66s1.61-21.7,15.9-48,38.73-38.72,38.73-38.72-2.72,23.76-17.93,51.78-36.7,35-36.7,35" transform="translate(-233.66 -61.37)"/><path class="cls-22" d="M600.14,412s17.19-13.35,46.31-20.36,54.69,2.83,54.69,2.83-19.46,13.9-50.47,21.37S600.14,412,600.14,412" transform="translate(-233.66 -61.37)"/><path class="cls-23" d="M625.91,388.81s10.71-18.94,34.85-36.66,51.54-18.53,51.54-18.53S699.72,354,674,372.82s-48.1,16-48.1,16" transform="translate(-233.66 -61.37)"/><path class="cls-24" d="M651.51,349.85s-7.25-19.4-5.36-47.83,18.09-48.87,18.09-48.87,7.1,21.62,5.08,51.9-17.81,44.8-17.81,44.8" transform="translate(-233.66 -61.37)"/><path class="cls-25" d="M671.83,331.47s7.44-17.26,26.55-34.7S741,276.11,741,276.11s-8.94,18.62-29.29,37.2-39.83,18.16-39.83,18.16" transform="translate(-233.66 -61.37)"/><path class="cls-26" d="M683.34,293.21s.91-18.78,12.69-41.82,32.62-34.27,32.62-34.27-1.84,20.57-14.38,45.1-30.93,31-30.93,31" transform="translate(-233.66 -61.37)"/><path class="cls-27" d="M691.39,237.18s-1.62-18.73,7-43.15S726,155.68,726,155.68s1,20.63-8.18,46.63-26.47,34.87-26.47,34.87" transform="translate(-233.66 -61.37)"/><path class="cls-28" d="M683.63,200.25s-8.6-16.71-9.93-42.55,11.09-46,11.09-46,8.71,18.73,10.13,46.25-11.29,42.3-11.29,42.3" transform="translate(-233.66 -61.37)"/><path class="cls-29" d="M662.44,155.82s-11.2-15.09-16.71-40.38,3.47-47.18,3.47-47.18,11.63,17.06,17.5,44-4.26,43.57-4.26,43.57" transform="translate(-233.66 -61.37)"/><path class="cls-30" d="M682.37,269.11s-14-12.53-24.47-36.2S651.83,186,651.83,186s14.83,14.39,26,39.59,4.57,43.54,4.57,43.54" transform="translate(-233.66 -61.37)"/><path class="cls-31" d="M666.89,184.53s-17.9-5.76-37.08-23.11S605.16,121,605.16,121s19.39,7.11,39.84,25.59,21.89,37.91,21.89,37.91" transform="translate(-233.66 -61.37)"/><path class="cls-32" d="M640.44,132.76s-16.93-8.17-33.55-28S588,61.37,588,61.37s18.24,9.7,35.94,30.82,16.46,40.57,16.46,40.57" transform="translate(-233.66 -61.37)"/></g><g id="Layer_10" data-name="Layer 10"><path class="cls-33" d="M459.91,278.08c0,19.84,7,28.13,25.3,28.13,17.88,0,27.48-7.85,27.48-30.31,0-24.21-13.31-31.84-29.23-31.84h-12V225.74h12C495.68,225.3,512,214,512,198c0-15.26-8.5-24.21-25.08-24.21-14.82,0-25.73,6.76-25.73,28.14H441.59c0-30.32,15.49-46,45.58-46.45,25.3,0,44.93,13.73,44.93,42.74,0,12.87-5.67,29.66-22.47,36.64,16.8,6.54,24.87,17.44,24.87,40.78,0,31.4-16.58,50.81-49.07,50.81-33.59,0-45.8-15.92-45.8-48.41Z" transform="translate(-233.66 -61.37)"/></g></svg>