<svg xmlns="http://www.w3.org/2000/svg" xmlns:xlink="http://www.w3.org/1999/xlink" viewBox="0 0 507.33 442.93"><defs><style>.cls-1{fill:url(#linear-gradient);}.cls-2{fill:url(#linear-gradient-2);}.cls-3{fill:url(#linear-gradient-3);}.cls-4{fill:url(#linear-gradient-4);}.cls-5{fill:url(#linear-gradient-5);}.cls-6{fill:url(#linear-gradient-6);}.cls-7{fill:url(#linear-gradient-7);}.cls-8{fill:url(#linear-gradient-8);}.cls-9{fill:url(#linear-gradient-9);}.cls-10{fill:url(#linear-gradient-10);}.cls-11{fill:url(#linear-gradient-11);}.cls-12{fill:url(#linear-gradient-12);}.cls-13{fill:url(#linear-gradient-13);}.cls-14{fill:url(#linear-gradient-14);}.cls-15{fill:url(#linear-gradient-15);}.cls-16{fill:url(#linear-gradient-16);}.cls-17{fill:url(#linear-gradient-17);}.cls-18{fill:url(#linear-gradient-18);}.cls-19{fill:url(#linear-gradient-19);}.cls-20{fill:url(#linear-gradient-20);}.cls-21{fill:url(#linear-gradient-21);}.cls-22{fill:url(#linear-gradient-22);}.cls-23{fill:url(#linear-gradient-23);}.cls-24{fill:url(#linear-gradient-24);}.cls-25{fill:url(#linear-gradient-25);}.cls-26{fill:url(#linear-gradient-26);}.cls-27{fill:url(#linear-gradient-27);}.cls-28{fill:url(#linear-gradient-28);}.cls-29{fill:url(#linear-gradient-29);}.cls-30{fill:url(#linear-gradient-30);}.cls-31{fill:url(#linear-gradient-31);}.cls-32{fill:url(#linear-gradient-32);}.cls-33{fill:url(#linear-gradient-33);}</style><linearGradient id="linear-gradient" x1="451.15" y1="241.19" x2="525.08" y2="241.19" gradientUnits="userSpaceOnUse"><stop offset="0" stop-color="#d2961c"/><stop offset="1" stop-color="#f6dba2"/></linearGradient><linearGradient id="linear-gradient-2" x1="371.41" y1="459.64" x2="472.26" y2="459.64" xlink:href="#linear-gradient"/><linearGradient id="linear-gradient-3" x1="392.2" y1="415.95" x2="472.33" y2="415.95" xlink:href="#linear-gradient"/><linearGradient id="linear-gradient-4" x1="323.83" y1="437.57" x2="426.13" y2="437.57" xlink:href="#linear-gradient"/><linearGradient id="linear-gradient-5" x1="334.82" y1="371.84" x2="389.46" y2="371.84" xlink:href="#linear-gradient"/><linearGradient id="linear-gradient-6" x1="273.5" y1="404.26" x2="374.5" y2="404.26" xlink:href="#linear-gradient"/><linearGradient id="linear-gradient-7" x1="262.34" y1="361.84" x2="348.73" y2="361.84" xlink:href="#linear-gradient"/><linearGradient id="linear-gradient-8" x1="304.96" y1="302.05" x2="328.8" y2="302.05" xlink:href="#linear-gradient"/><linearGradient id="linear-gradient-9" x1="233.69" y1="304.34" x2="302.82" y2="304.34" xlink:href="#linear-gradient"/><linearGradient id="linear-gradient-10" x1="245.98" y1="255.71" x2="291.29" y2="255.71" xlink:href="#linear-gradient"/><linearGradient id="linear-gradient-11" x1="248.56" y1="196.97" x2="283.37" y2="196.97" xlink:href="#linear-gradient"/><linearGradient id="linear-gradient-12" x1="279.61" y1="156.51" x2="301.04" y2="156.51" xlink:href="#linear-gradient"/><linearGradient id="linear-gradient-13" x1="306.11" y1="112.57" x2="330.7" y2="112.57" xlink:href="#linear-gradient"/><linearGradient id="linear-gradient-14" x1="290.34" y1="228.09" x2="323.72" y2="228.09" xlink:href="#linear-gradient"/><linearGradient id="linear-gradient-15" x1="307.75" y1="153.31" x2="369.48" y2="153.31" xlink:href="#linear-gradient"/><linearGradient id="linear-gradient-16" x1="334.18" y1="97.59" x2="386.59" y2="97.59" xlink:href="#linear-gradient"/><linearGradient id="linear-gradient-17" x1="432.13" y1="482.75" x2="474.95" y2="482.75" xlink:href="#linear-gradient"/><linearGradient id="linear-gradient-18" x1="499.76" y1="482.75" x2="542.58" y2="482.75" xlink:href="#linear-gradient"/><linearGradient id="linear-gradient-19" x1="502.45" y1="459.64" x2="603.29" y2="459.64" xlink:href="#linear-gradient"/><linearGradient id="linear-gradient-20" x1="502.38" y1="415.95" x2="582.5" y2="415.95" xlink:href="#linear-gradient"/><linearGradient id="linear-gradient-21" x1="548.57" y1="437.57" x2="650.88" y2="437.57" xlink:href="#linear-gradient"/><linearGradient id="linear-gradient-22" x1="585.24" y1="371.84" x2="639.88" y2="371.84" xlink:href="#linear-gradient"/><linearGradient id="linear-gradient-23" x1="600.2" y1="404.26" x2="701.21" y2="404.26" xlink:href="#linear-gradient"/><linearGradient id="linear-gradient-24" x1="625.97" y1="361.84" x2="712.37" y2="361.84" xlink:href="#linear-gradient"/><linearGradient id="linear-gradient-25" x1="645.9" y1="302.05" x2="669.74" y2="302.05" xlink:href="#linear-gradient"/><linearGradient id="linear-gradient-26" x1="671.89" y1="304.34" x2="741.02" y2="304.34" xlink:href="#linear-gradient"/><linearGradient id="linear-gradient-27" x1="683.4" y1="255.71" x2="728.71" y2="255.71" xlink:href="#linear-gradient"/><linearGradient id="linear-gradient-28" x1="691.33" y1="196.97" x2="726.14" y2="196.97" xlink:href="#linear-gradient"/><linearGradient id="linear-gradient-29" x1="673.66" y1="156.51" x2="695.1" y2="156.51" xlink:href="#linear-gradient"/><linearGradient id="linear-gradient-30" x1="644.01" y1="112.57" x2="668.6" y2="112.57" xlink:href="#linear-gradient"/><linearGradient id="linear-gradient-31" x1="650.98" y1="228.09" x2="684.36" y2="228.09" xlink:href="#linear-gradient"/><linearGradient id="linear-gradient-32" x1="605.22" y1="153.31" x2="666.95" y2="153.31" xlink:href="#linear-gradient"/><linearGradient id="linear-gradient-33" x1="588.1" y1="97.59" x2="640.52" y2="97.59" xlink:href="#linear-gradient"/></defs><title>Gold1</title><g id="Layer_10" data-name="Layer 10"><path class="cls-1" d="M451.15,307.71h27.26V175.55H457V157h42.09v150.7h26v17.66H451.15Z" transform="translate(-233.69 -61.89)"/></g><g id="Layer_2" data-name="Layer 2"><path class="cls-2" d="M472.26,448.51s-6.45,19.22-45.35,23.36-55.5-4.14-55.5-4.14,25.94-20.22,50.83-21.27a351.81,351.81,0,0,1,50,2.05" transform="translate(-233.69 -61.89)"/><path class="cls-3" d="M472.26,448.51s2.93-20.11-29.29-42.3S392.2,383.4,392.2,383.4s10.65,27.4,36.58,43.44a294.26,294.26,0,0,0,43.48,21.67" transform="translate(-233.69 -61.89)"/><path class="cls-4" d="M426.13,434.27s-19.84-8.95-49.79-8.95-52.51,15.56-52.51,15.56,22.16,8.94,54.07,8.94,48.23-15.55,48.23-15.55" transform="translate(-233.69 -61.89)"/><path class="cls-5" d="M389.46,415.21s-1.61-21.7-15.9-48-38.74-38.72-38.74-38.72,2.72,23.76,17.95,51.79,36.69,34.95,36.69,34.95" transform="translate(-233.69 -61.89)"/><path class="cls-6" d="M374.5,412.5s-17.19-13.34-46.3-20.35S273.5,395,273.5,395,293,408.87,324,416.34s50.52-3.84,50.52-3.84" transform="translate(-233.69 -61.89)"/><path class="cls-7" d="M348.73,389.36S338,370.42,313.88,352.7s-51.54-18.53-51.54-18.53,12.59,20.33,38.29,39.2,48.1,16,48.1,16" transform="translate(-233.69 -61.89)"/><path class="cls-8" d="M323.14,350.4s7.24-19.4,5.35-47.83S310.4,253.7,310.4,253.7s-7.1,21.61-5.08,51.9,17.82,44.8,17.82,44.8" transform="translate(-233.69 -61.89)"/><path class="cls-9" d="M302.82,332s-7.45-17.26-26.56-34.71-42.57-20.66-42.57-20.66,8.94,18.63,29.29,37.2S302.82,332,302.82,332" transform="translate(-233.69 -61.89)"/><path class="cls-10" d="M291.29,293.76s-.92-18.78-12.7-41.82S246,217.66,246,217.66s1.84,20.57,14.38,45.1,30.93,31,30.93,31" transform="translate(-233.69 -61.89)"/><path class="cls-11" d="M283.25,237.72s1.61-18.73-7-43.15-27.7-38.35-27.7-38.35-1,20.63,8.17,46.63,26.49,34.87,26.49,34.87" transform="translate(-233.69 -61.89)"/><path class="cls-12" d="M291,200.79s8.6-16.72,9.93-42.56-11.1-46-11.1-46-8.7,18.72-10.12,46.24S291,200.79,291,200.79" transform="translate(-233.69 -61.89)"/><path class="cls-13" d="M312.2,156.36s11.2-15.1,16.71-40.38-3.47-47.19-3.47-47.19-11.64,17.06-17.5,44,4.26,43.58,4.26,43.58" transform="translate(-233.69 -61.89)"/><path class="cls-14" d="M292.27,269.66s14-12.54,24.47-36.21,6.07-46.93,6.07-46.93-14.83,14.39-26,39.59-4.57,43.55-4.57,43.55" transform="translate(-233.69 -61.89)"/><path class="cls-15" d="M307.75,185.07s17.9-5.76,37.1-23.12,24.63-40.39,24.63-40.39-19.39,7.12-39.83,25.59-21.9,37.92-21.9,37.92" transform="translate(-233.69 -61.89)"/><path class="cls-16" d="M334.19,133.3s16.94-8.18,33.56-28,18.84-43.41,18.84-43.41-18.22,9.71-35.93,30.83-16.47,40.58-16.47,40.58" transform="translate(-233.69 -61.89)"/><path class="cls-17" d="M475,460.67c0,26-42.82,54.35-42.82,40.52S475,469.89,475,460.67" transform="translate(-233.69 -61.89)"/><path class="cls-18" d="M499.76,460.67c0,26,42.82,54.35,42.82,40.52s-42.82-31.3-42.82-40.52" transform="translate(-233.69 -61.89)"/><path class="cls-19" d="M502.45,448.51s6.45,19.22,45.35,23.36,55.49-4.14,55.49-4.14-25.93-20.22-50.82-21.27a351.81,351.81,0,0,0-50,2.05" transform="translate(-233.69 -61.89)"/><path class="cls-20" d="M502.45,448.51s-2.93-20.11,29.29-42.3S582.5,383.4,582.5,383.4s-10.64,27.4-36.57,43.44a294.8,294.8,0,0,1-43.48,21.67" transform="translate(-233.69 -61.89)"/><path class="cls-21" d="M548.57,434.27s19.84-8.95,49.79-8.95,52.52,15.56,52.52,15.56-22.17,8.94-54.08,8.94-48.23-15.55-48.23-15.55" transform="translate(-233.69 -61.89)"/><path class="cls-22" d="M585.24,415.21s1.62-21.7,15.91-48,38.73-38.72,38.73-38.72-2.72,23.76-17.93,51.79-36.71,34.95-36.71,34.95" transform="translate(-233.69 -61.89)"/><path class="cls-23" d="M600.2,412.5s17.19-13.34,46.31-20.35,54.7,2.82,54.7,2.82-19.47,13.9-50.48,21.37-50.53-3.84-50.53-3.84" transform="translate(-233.69 -61.89)"/><path class="cls-24" d="M626,389.36s10.71-18.94,34.85-36.66,51.55-18.53,51.55-18.53-12.58,20.33-38.3,39.2-48.1,16-48.1,16" transform="translate(-233.69 -61.89)"/><path class="cls-25" d="M651.57,350.4s-7.25-19.4-5.36-47.83S664.3,253.7,664.3,253.7s7.1,21.61,5.08,51.9-17.81,44.8-17.81,44.8" transform="translate(-233.69 -61.89)"/><path class="cls-26" d="M671.89,332s7.45-17.26,26.55-34.71S741,276.65,741,276.65s-8.95,18.63-29.29,37.2S671.89,332,671.89,332" transform="translate(-233.69 -61.89)"/><path class="cls-27" d="M683.4,293.76s.92-18.78,12.7-41.82,32.61-34.28,32.61-34.28-1.83,20.57-14.37,45.1-30.94,31-30.94,31" transform="translate(-233.69 -61.89)"/><path class="cls-28" d="M691.46,237.72s-1.62-18.73,6.95-43.15,27.7-38.35,27.7-38.35,1,20.63-8.18,46.63-26.47,34.87-26.47,34.87" transform="translate(-233.69 -61.89)"/><path class="cls-29" d="M683.69,200.79s-8.59-16.72-9.93-42.56,11.1-46,11.1-46S693.57,131,695,158.48s-11.3,42.31-11.3,42.31" transform="translate(-233.69 -61.89)"/><path class="cls-30" d="M662.5,156.36s-11.2-15.1-16.71-40.38,3.47-47.19,3.47-47.19,11.63,17.06,17.5,44-4.26,43.58-4.26,43.58" transform="translate(-233.69 -61.89)"/><path class="cls-31" d="M682.44,269.66s-14-12.54-24.48-36.21-6.06-46.93-6.06-46.93,14.82,14.39,26,39.59,4.57,43.55,4.57,43.55" transform="translate(-233.69 -61.89)"/><path class="cls-32" d="M667,185.07s-17.89-5.76-37.08-23.12-24.65-40.39-24.65-40.39,19.39,7.12,39.84,25.59S667,185.07,667,185.07" transform="translate(-233.69 -61.89)"/><path class="cls-33" d="M640.5,133.3s-16.93-8.18-33.55-28S588.1,61.89,588.1,61.89,606.34,71.6,624,92.72,640.5,133.3,640.5,133.3" transform="translate(-233.69 -61.89)"/></g></svg>