<svg xmlns="http://www.w3.org/2000/svg" xmlns:xlink="http://www.w3.org/1999/xlink" viewBox="0 0 50 50" fill="#FFFFFF">
  <path d="M34.998047 2 A 1.0001 1.0001 0 0 0 34.130859 2.5058594C34.130859 2.5058594 32.228387 5.6250613 33.324219 8.7832031L33.322266 8.7832031C33.908094 10.47195 35.244567 11.694668 36.390625 12.550781C37.269573 13.207361 37.929697 13.564822 38.259766 13.736328C38.511293 14.188132 38.730359 14.657318 38.919922 15.142578C37.648686 14.074512 36.283157 13.475722 35.40625 13.085938 A 1.0001 1.0001 0 0 0 35.017578 13 A 1.0001 1.0001 0 0 0 34 14C34 15.479 34.0016 17.592661 35.392578 19.714844C36.687192 21.68826 38.778235 22.486597 39.962891 22.798828C39.913619 23.861638 39.769204 24.893508 39.535156 25.890625C39.144505 24.980959 38.51353 24.077282 37.548828 23.244141 A 1.0001 1.0001 0 0 0 36.908203 23 A 1.0001 1.0001 0 0 0 36.212891 23.269531C36.212891 23.269531 34 25.367611 34 28.908203C34 30.6137 34.901054 32.040351 35.832031 33.046875C35.752905 33.135135 35.682534 33.232055 35.601562 33.318359C35.014982 33.943412 34.211939 34.588771 33.324219 35.234375C33.385202 35.053292 33.459332 34.866984 33.509766 34.693359C33.921728 33.275131 33.998047 32.064453 33.998047 32.064453 A 1.0001 1.0001 0 0 0 33.035156 31 A 1.0001 1.0001 0 0 0 32.884766 31.005859C32.884766 31.005859 29.39078 31.313912 27.207031 33.699219C25.994551 35.02361 25.913479 36.77907 26.048828 38.111328C26.112577 38.738817 26.233907 39.291178 26.34375 39.712891C25.846698 40.043723 25.400961 40.370924 25 40.697266C24.599039 40.370924 24.153302 40.043723 23.65625 39.712891C23.766093 39.291178 23.887423 38.738817 23.951172 38.111328C24.086521 36.77907 24.005452 35.02361 22.792969 33.699219C20.60922 31.313912 17.115234 31.005859 17.115234 31.005859 A 1.0001 1.0001 0 0 0 17.015625 31 A 1.0001 1.0001 0 0 0 16.001953 32.064453C16.001953 32.064453 16.078273 33.275131 16.490234 34.693359C16.540442 34.866205 16.605268 35.048343 16.666016 35.228516C15.782161 34.585191 14.982942 33.941199 14.398438 33.318359C14.317466 33.232055 14.247095 33.135135 14.167969 33.046875C15.098946 32.04035 16 30.6137 16 28.908203C16 25.367611 13.787109 23.269531 13.787109 23.269531 A 1.0001 1.0001 0 0 0 13.056641 23.001953 A 1.0001 1.0001 0 0 0 12.451172 23.244141C11.486471 24.077282 10.855495 24.980959 10.464844 25.890625C10.230796 24.893508 10.086381 23.861638 10.037109 22.798828C11.221765 22.486597 13.312808 21.68826 14.607422 19.714844C15.998442 17.592661 16 15.479 16 14 A 1.0001 1.0001 0 0 0 14.970703 13 A 1.0001 1.0001 0 0 0 14.59375 13.085938C13.720998 13.473875 12.363757 14.068384 11.097656 15.126953C11.285773 14.649301 11.492288 14.1817 11.740234 13.736328C12.070303 13.564822 12.730427 13.207361 13.609375 12.550781C14.755433 11.694668 16.091906 10.47195 16.677734 8.7832031L16.675781 8.7832031C17.77166 5.6250613 15.869141 2.5058594 15.869141 2.5058594 A 1.0001 1.0001 0 0 0 14.953125 2.0019531 A 1.0001 1.0001 0 0 0 14.4375 2.1738281C14.4375 2.1738281 10 4.9930764 10 9.3632812L10 12.755859C9.8504171 13.024041 9.7018128 13.292746 9.5722656 13.568359C9.3087431 12.579199 8.9528789 11.769008 8.5898438 11.130859C7.8711319 9.8674999 7.0546875 9.2128906 7.0546875 9.2128906 A 1.0001 1.0001 0 0 0 6.4023438 9 A 1.0001 1.0001 0 0 0 5.5996094 9.4570312C4.5433833 11.093537 3.7186202 13.707239 4.078125 16.146484C4.4809765 18.877491 6.9095474 20.185569 8.0273438 20.673828C8.0095465 21.113658 8 21.555317 8 22C8 22.025044 8.0038097 22.049198 8.0039062 22.074219C7.460386 21.665712 6.8768524 21.331209 6.3242188 21.068359C4.7124674 20.301761 3.1875 20.017578 3.1875 20.017578 A 1.0001 1.0001 0 0 0 2.9882812 20 A 1.0001 1.0001 0 0 0 2.0097656 21.136719C2.0097656 21.136719 2.4574207 25.050724 4.1738281 27.564453C5.258922 29.153946 6.8612116 29.675654 8.0722656 29.732422C8.6777926 29.760807 9.2197411 29.68776 9.609375 29.607422C9.8671982 30.191285 10.153327 30.75676 10.466797 31.304688C9.8755394 31.118531 9.2598162 31 8.6289062 31C6.4473944 31 4.5175781 32.125 4.5175781 32.125 A 1.0001 1.0001 0 0 0 4.0820312 33.394531C4.0820312 33.394531 4.56248 34.522824 5.515625 35.646484C6.46877 36.770145 7.994921 38 10.066406 38C12.369566 38 13.977252 37.0476 14.839844 36.363281C15.59297 36.948298 16.407564 37.504802 17.236328 38.046875C15.451071 38.15889 14.032262 38.615704 13.052734 39.105469C11.933477 39.665097 11.292969 40.292969 11.292969 40.292969 A 1.0001 1.0001 0 0 0 11.445312 41.832031C11.445312 41.832031 14.555556 44 18 44C20.384696 44 21.774314 42.452149 22.474609 41.345703C22.847682 41.592028 23.201171 41.832323 23.492188 42.046875C22.303751 43.216202 21.538774 44.41745 21.066406 45.640625 A 1.000374 1.000374 0 1 0 22.933594 46.359375C23.335881 45.31767 23.934274 44.362622 25 43.353516C26.065726 44.362621 26.664119 45.31767 27.066406 46.359375 A 1.000374 1.000374 0 1 0 28.933594 45.640625C28.461225 44.417447 27.696249 43.216202 26.507812 42.046875C26.796928 41.833724 27.149352 41.596098 27.519531 41.351562C28.226229 42.458523 29.63 44 32 44C35.444444 44 38.554688 41.832031 38.554688 41.832031 A 1.0001 1.0001 0 0 0 38.707031 40.292969C38.707031 40.292969 38.066523 39.665097 36.947266 39.105469C35.97023 38.61695 34.556077 38.160467 32.777344 38.046875C33.608579 37.508292 34.409438 36.946427 35.160156 36.363281C36.022748 37.0476 37.630434 38 39.933594 38C42.00508 38 43.53123 36.770145 44.484375 35.646484C45.43752 34.522824 45.917969 33.394531 45.917969 33.394531 A 1.0001 1.0001 0 0 0 45.482422 32.125C45.482422 32.125 43.552606 31 41.371094 31C40.740184 31 40.124461 31.118531 39.533203 31.304688C39.846673 30.75676 40.132802 30.191285 40.390625 29.607422C40.780259 29.68776 41.322207 29.760806 41.927734 29.732422C43.138788 29.675652 44.741078 29.153946 45.826172 27.564453C47.542579 25.050724 47.990234 21.136719 47.990234 21.136719 A 1.0001 1.0001 0 0 0 47.007812 20 A 1.0001 1.0001 0 0 0 46.8125 20.017578C46.8125 20.017578 45.287533 20.301761 43.675781 21.068359C43.123148 21.331209 42.539614 21.665712 41.996094 22.074219 A 1.0001 1.0001 0 0 0 42 22C42 21.555317 41.990453 21.113658 41.972656 20.673828C43.090453 20.185569 45.519023 18.877491 45.921875 16.146484C46.28138 13.707239 45.456617 11.093537 44.400391 9.4570312 A 1.0001 1.0001 0 0 0 43.556641 9 A 1.0001 1.0001 0 0 0 42.945312 9.2128906C42.945312 9.2128906 42.128868 9.8674999 41.410156 11.130859C41.047121 11.769008 40.691257 12.579199 40.427734 13.568359C40.298187 13.292746 40.149583 13.024041 40 12.755859L40 9.3632812C40 4.9930764 35.5625 2.1738281 35.5625 2.1738281 A 1.0001 1.0001 0 0 0 34.998047 2 z M 14.599609 4.734375C14.924569 5.6811546 15.209053 6.9109295 14.787109 8.1269531C14.426938 9.1652058 13.395551 10.214582 12.412109 10.949219C12.192661 11.113148 12.199143 11.074045 12 11.205078L12 9.3632812C12 7.2444261 13.573903 5.6473916 14.599609 4.734375 z M 35.400391 4.734375C36.426097 5.6473916 38 7.2444261 38 9.3632812L38 11.205078C37.800857 11.074045 37.807339 11.113148 37.587891 10.949219C36.604449 10.214582 35.573062 9.1652058 35.212891 8.1269531C34.790947 6.9109295 35.075431 5.6811546 35.400391 4.734375 z M 6.7148438 11.941406C6.7853737 12.05082 6.7767428 11.987626 6.8515625 12.119141C7.4128509 13.10578 8 14.670667 8 17L8 18.328125C7.1291404 17.798358 6.2345305 17.059464 6.0566406 15.853516C5.8750235 14.621241 6.2453007 13.171086 6.7148438 11.941406 z M 43.285156 11.941406C43.754699 13.171086 44.124976 14.621241 43.943359 15.853516C43.76547 17.059464 42.87086 17.798358 42 18.328125L42 17C42 14.670667 42.587148 13.10578 43.148438 12.119141C43.223258 11.987621 43.214628 12.050821 43.285156 11.941406 z M 13.902344 15.652344C13.812014 16.611578 13.61142 17.588008 12.935547 18.619141C12.247171 19.668451 11.178526 20.231874 10.269531 20.576172C10.553689 19.058622 11.116487 17.863073 11.949219 17.048828C12.557531 16.45402 13.236367 16.016323 13.902344 15.652344 z M 36.097656 15.652344C36.763633 16.016323 37.442469 16.45402 38.050781 17.048828C38.883513 17.863073 39.446311 19.058622 39.730469 20.576172C38.821474 20.231874 37.752829 19.668451 37.064453 18.619141C36.38858 17.588008 36.187988 16.611578 36.097656 15.652344 z M 4.3476562 22.498047C4.8062046 22.640417 4.8991159 22.605923 5.4648438 22.875C6.8075924 23.513652 7.9880814 24.46338 8.1542969 25.677734 A 1.0001 1.0001 0 0 0 8.1757812 25.787109L8.6542969 27.673828C8.4415393 27.702458 8.4434718 27.749338 8.1660156 27.736328C7.3770699 27.699346 6.533078 27.471054 5.8261719 26.435547C5.0794707 25.341981 4.6391528 23.764905 4.3476562 22.498047 z M 45.652344 22.498047C45.360847 23.764905 44.920529 25.341981 44.173828 26.435547C43.466922 27.471054 42.62293 27.699346 41.833984 27.736328C41.556528 27.749338 41.558461 27.702458 41.345703 27.673828L41.824219 25.787109 A 1.0001 1.0001 0 0 0 41.845703 25.677734C42.011919 24.46338 43.192408 23.513652 44.535156 22.875C45.100884 22.605923 45.193795 22.640417 45.652344 22.498047 z M 13.037109 25.558594C13.495274 26.230783 14 27.237679 14 28.908203C14 29.661329 13.50585 30.513244 12.955078 31.251953C12.636431 30.791212 12.391873 30.615675 12.134766 29.75C11.75929 28.485782 11.762794 27.068159 13.037109 25.558594 z M 36.962891 25.558594C38.237206 27.068159 38.24071 28.485782 37.865234 29.75C37.608127 30.615675 37.363569 30.791212 37.044922 31.251953C36.494148 30.513244 36 29.661329 36 28.908203C36 27.237679 36.504724 26.230783 36.962891 25.558594 z M 8.6289062 33C9.6154268 33 11.066222 33.65447 12.195312 34.373047C12.780553 34.745506 12.854805 34.843884 13.199219 35.115234C12.575527 35.550179 11.629886 36 10.066406 36C8.7918926 36 7.7843707 35.229855 7.0410156 34.353516C6.6597444 33.904036 6.65239 33.787106 6.4648438 33.457031C7.0807418 33.228294 7.8717162 33 8.6289062 33 z M 41.371094 33C42.128284 33 42.919258 33.228294 43.535156 33.457031C43.34761 33.787106 43.340256 33.904036 42.958984 34.353516C42.215629 35.229855 41.208108 36 39.933594 36C38.370114 36 37.424473 35.550179 36.800781 35.115234C37.145195 34.843884 37.219447 34.745506 37.804688 34.373047C38.933779 33.65447 40.384573 33 41.371094 33 z M 18.261719 33.34375C19.250222 33.631762 20.452439 34.104937 21.318359 35.050781C21.936879 35.72639 22.069792 36.855961 21.962891 37.908203C21.935881 38.17409 21.901781 38.156576 21.857422 38.384766L20.361328 37.212891 A 1.0001 1.0001 0 0 0 20.28125 37.15625C19.398242 36.595576 18.756194 35.326038 18.410156 34.134766C18.285687 33.706268 18.323826 33.686498 18.261719 33.34375 z M 31.738281 33.34375C31.676181 33.686498 31.714311 33.706268 31.589844 34.134766C31.243806 35.326038 30.601758 36.595576 29.71875 37.15625 A 1.0001 1.0001 0 0 0 29.638672 37.212891L28.142578 38.384766C28.098218 38.156576 28.064118 38.17409 28.037109 37.908203C27.930208 36.855961 28.063119 35.72639 28.681641 35.050781C29.547561 34.104937 30.749778 33.631762 31.738281 33.34375 z M 18 40C19.32232 40 20.146187 40.199038 20.697266 40.378906C20.271041 41.098811 19.543955 42 18 42C16.455989 42 15.028143 41.421994 13.951172 40.892578C14.831957 40.452711 16.168903 40 18 40 z M 32 40C33.831097 40 35.168043 40.452711 36.048828 40.892578C34.971857 41.421994 33.544011 42 32 42C30.456045 42 29.728959 41.098811 29.302734 40.378906C29.853813 40.199038 30.67768 40 32 40 z" fill="#FFFFFF" />
</svg>