<?xml version="1.0" encoding="iso-8859-1"?>
<!-- Generator: Adobe Illustrator 22.1.0, SVG Export Plug-In . SVG Version: 6.00 Build 0)  -->
<svg version="1.1" id="Layer_14" xmlns="http://www.w3.org/2000/svg" xmlns:xlink="http://www.w3.org/1999/xlink" x="0px" y="0px"
	 viewBox="0 0 800 600" style="enable-background:new 0 0 800 600;" xml:space="preserve">
<rect style="fill:#eeeeee;" width="800" height="600"/>
<g>

		<radialGradient id="SVGID_1_" cx="844.5729" cy="-2102.498" r="264.3628" gradientTransform="matrix(1.339 0 0 1.0196 -730.8832 2521.2075)" gradientUnits="userSpaceOnUse">
		<stop  offset="0" style="stop-color:#E0E0E0"/>
		<stop  offset="1" style="stop-color:#eeeeee"/>
	</radialGradient>
	<rect y="105" style="fill:url(#SVGID_1_);" width="800" height="495"/>
	<rect y="429" style="fill:#eeeeee;" width="800" height="171"/>
	<g>

			<linearGradient id="SVGID_2_" gradientUnits="userSpaceOnUse" x1="424" y1="-1951" x2="424" y2="-1970" gradientTransform="matrix(1 0 0 1 0 2426)">
			<stop  offset="0" style="stop-color:#eeeeee"/>
			<stop  offset="1" style="stop-color:#E0E0E0"/>
		</linearGradient>
		<path style="opacity:0.2;fill:url(#SVGID_2_);enable-background:new    ;" d="M567,456L567,456c0,10.493-8.966,19-20.027,19
			H301.027C289.966,475,281,466.493,281,456H567z"/>

			<linearGradient id="SVGID_3_" gradientUnits="userSpaceOnUse" x1="178" y1="-1965" x2="178" y2="-1984" gradientTransform="matrix(1 0 0 1 0 2426)">
			<stop  offset="0" style="stop-color:#eeeeee"/>
			<stop  offset="1" style="stop-color:#E0E0E0"/>
		</linearGradient>
		<path style="opacity:0.2;fill:url(#SVGID_3_);enable-background:new    ;" d="M244.027,442L244.027,442
			c0,10.493-8.966,19-20.027,19h-92c-11.061,0-20.027-8.507-20.027-19H244.027z"/>
	</g>
	<g>
		<path style="fill:#6D4C41;" d="M186,440h26c0.574,0,1.04-0.478,1.003-1.05c-0.078-1.185-1.003-3.95-4.961-3.95
			c0,0-1.557,0.2-3.56,0.492C201,436,198.286,433.286,198,433L186,440z"/>
		<g>
			<path style="fill:#8D6E63;" d="M222.003,440.82c-0.08,0.62-0.36,1.18-0.99,1.18h-3.743c-0.71,0-1.37-0.37-1.73-0.98l-0.34-0.58
				c-0.13-0.28-0.2-0.57-0.2-0.88V437c-1-4-3-11-3-11c-1.94-5.83-1.97-10.47-1.97-10.74c-2.28,5.18-4.6,7.51-4.6,7.51
				c-0.25,11-9.72,13.94-9.43,14.23s4,0.78,6,0.49c2-0.28,3.55-0.49,3.55-0.49c4.43,0,5.45,2.66,5.45,3.88c0,0.57-0.42,1.12-1,1.12
				h-37c-3.89,0-7.1-0.84-10.21-1.65c-2.66-0.7-5.16-1.35-7.79-1.35c-4.86,0-5.93,1.29-6.06,1.48c-0.22,0.89-1.02,1.52-1.94,1.52
				c-0.08,0-0.17-0.01-0.25-0.02c-1.1-0.14-1.87-1.14-1.73-2.23c0.1-0.8,1.06-4.75,9.98-4.75c3.14,0,6.02,0.75,8.8,1.48
				c2.86,0.75,5.82,1.52,9.2,1.52c0.07,0,0.14,0,0.2,0.01h0.1c1.95,0,2.7-1.71,2.7-3.47c0-11,2.56-17.25,6.17-23.29
				c3.83-6.42,12.85-13.04,12.85-13.04c2-3.72,5.41-3.92,5.98-6.21s-1.63-5.05-4-9c-3-5-1.95-11.33-1.95-11.33
				c0.24,0.32,0.49,0.62,0.75,0.9c6.23,6.8,11.856,8.757,13.325,9.961c0.24,0.197,12.191,9.129,12.281,14.469
				c0.09,5.17-1.166,9.08-2.356,10.91C219.02,407.97,219,408,219,408c-0.76,1.15-1,2.07-1,3.45V416c0,4-0.83,7.42,0,10
				c1.08,3.38,1,12,1,12C221,438,222.103,440,222.003,440.82z"/>
		</g>
		<path style="fill:#6D4C41;" d="M212.724,378.583c0.421-1.137,3.723-3.52,6.294-4.663s2.857-2.571,2.857-2.571l0.571-4
			c1.714-8.571,5.429-15.429,5.429-15.429c0-1.143,0-2.857,0.857-3.429s0.857-1.429,2.286-2.857
			c0.446-0.446,0.865-0.614,1.229-0.633c0.802-0.042,2.112,0.849,3.237,1.889c1.245,1.151,0.516,6.109-3.895,9.316
			c-1.155,0.84-1.304,2.079-1.59,7.794s-1.839,11.349-1.839,11.349c-2.857,4.857-5.143,12.571-6.286,14.857
			c0,0,0.125,3.794,0.125,6.794C222,397,215.656,383.031,212.724,378.583z"/>
		<path style="fill:#A1887F;" d="M203,379c0,0,0.78,0.78,2.42,2.25c2.08,1.86,5.55,4.84,10.58,8.75c8.52,6.62,3.6,16.83,3.05,17.91
			c1.19-1.83,3.04-5.74,2.95-10.91c-0.09-5.34-6.95-14.13-8.21-18.69c-0.357-1.31-0.437-1.23-0.357-1.31l-0.28,0.03L203,379z"/>
		<path style="fill:#8D6E63;" d="M205.42,381.25c1.19,0.15,2.39,0.09,3.58-0.25c1.057-0.3,3.335-1.761,5.125-3.625
			c0.901-0.938,0.879-3.817,0.879-3.955c0-1.416-0.333-1.902-0.333-1.902c0.29-1.14-0.371-1.888-0.371-1.888
			c-2,0-3.484-0.356-3.484-0.356s-0.227-0.35-1.087-0.92c-0.85-0.58-6.711-0.248-6.711-0.248C203.588,365.816,202,362,202,362
			s-0.43,2.57-1,4s-2,3-2,3c-1.14,1.43-2,1-3,3c-0.09,0.18-0.16,0.37-0.2,0.57C195.19,375.58,200.01,380.61,205.42,381.25z"/>
		<path style="fill:#795548;" d="M214.671,371.518c0.29-1.14-0.371-1.888-0.371-1.888c-0.8,0.203-1.206,1.057-1.206,1.057
			C214.234,370.875,214.671,371.518,214.671,371.518z"/>
		<path style="fill:#795548;" d="M195.415,368c0,0,2.095,0.269,3.592,2.154c0.596,0.75,1.191,1.159,1.692,1.38
			c0.741,0.326,1.16,1.112,1.032,1.911l-0.504,3.14c-0.127,0.788-0.993,1.22-1.693,0.835c-0.78-0.429-1.808-1.165-2.922-2.419
			C194.217,372.309,195.115,369.616,195.415,368z"/>
		<path style="fill:#795548;" d="M207.411,372.289c0.297-0.789,0.44-1.836,1.152-1.876s1.36,0.325,1.4,1.038
			c0.01,0.173-0.069,0.494-0.069,0.494C209.594,372.455,208.875,372.205,207.411,372.289z"/>
	</g>
	<g>
		<path style="fill:#FFCCBC;" d="M417.451,172.767c0,0-3.451-1.104-3.451-6.6c0-3.234,0.46-11.421,1.7-15.051
			c0.503-1.474,2.591-1.465,3.092,0.009l6.061,20.602L417.451,172.767z"/>
		<path style="fill:#424242;" d="M527.102,407.973l6.93,2.809c0,0,4.155,1.684,2.521,5.715c-2.739,6.755-6.983,17.228-8.225,20.292
			c-0.215,0.53-0.821,0.765-1.342,0.53c-1.584-0.715-4.394-2.787-3.194-8.279c2.657-10.772-0.366-11.998-0.366-11.998
			L527.102,407.973z"/>
		<path style="fill:#424242;" d="M460.827,428.961l1.814,7.254c0,0,1.088,4.35-3.132,5.405c-7.071,1.768-18.035,4.509-21.242,5.311
			c-0.555,0.139-1.102-0.212-1.219-0.772c-0.356-1.701-0.337-5.192,4.807-7.458c10.269-4.201,9.478-7.365,9.478-7.365
			L460.827,428.961z"/>
		<path style="fill:#FFCCBC;" d="M515.763,299c0,0,4.763,1.167,8.335,4.667c2.381,2.333-0.206,9.333-4.763,9.333
			c-5.953,0-8.335-9.333-8.335-9.333L515.763,299z"/>
		<path style="fill:#FFCCBC;" d="M446,211c0,0,18-0.049,18,13c0,18.485-18.714,22.971-18.714,22.971L440,211H446z"/>
		<path style="fill:#444B54;" d="M452,217c-2.869,4.35-1.833,6.583-1.663,9.962c0.11,2.172-2.877,3.698-2.877,3.698l2.175,2.175
			c0,0,2.365-4.793,5.865-4.798c3.262-0.004,3.04,4.328,1.474,5.894s-7.339,5.428-7.339,5.428l3.262,5.437
			C457.9,242.078,465,235.08,465,224c0-13.049-18.627-14-18.627-14H440v2.042C440,212.042,445.193,216.032,452,217z"/>
		<path style="fill:#595959;" d="M442.024,319.825l4.35,56.544l3.262,55.718l13.049-2.175c0,0,6.524-40.495,5.437-51.369
			c-0.317-3.166-4.35-11.961-4.35-11.961L442.024,319.825z"/>
		<path style="fill:#7F7F7F;" d="M433.325,313.301c0,0,8.379,28.398,29.247,67.363c0.783,1.462,1.916,2.715,3.287,3.647
			l56.516,35.314l5.726-11.247c-35.883-38.058-51.281-40.708-51.281-40.708s-1.087-43.495-9.786-63.068
			C449.635,303.514,433.325,313.301,433.325,313.301z"/>
		<path style="fill:#7986CB;" d="M511.616,305.689c0,0-24.016-15.814-25.01-16.311c-2.175-1.087-20.66-9.786-20.66-9.786L469,259
			l21.956,17.33c0,0,5.437,1.087,26.097,22.835L511.616,305.689z"/>
		<path style="fill:#9FA8DA;" d="M426.15,170.592c0,0,11.674,27.768,13.874,36.971c1.788,7.478,5.93,19.855,8.524,23.097
			C451.689,234.586,470,253.388,470,261c0,8.699-2.75,27.875,1.657,58.892c-6.524,0-22.021,1.021-35.07,10.807
			c0,0-7.449-33.699-7.449-57.845C429.138,251.999,432,239,432,239s-7-24-8-31c-0.878-6.144-2-9-7.636-35.233L426.15,170.592z"/>
	</g>
	<g>
		<path style="fill:#FFE0B2;" d="M382.833,171.875c-0.522-3.192-1.796-12.606-3.583-16c-0.726-1.378-2.787-1.046-3.053,0.488
			l-2.527,22.617c-2.67,13.02-7.254,32.799-7.254,32.799s2.489,6.523,9.787,3.462c3.243-12.236,3.769-36.219,3.769-36.219
			S383.771,177.604,382.833,171.875z"/>
		<path style="fill:#F59399;" d="M376.204,215.242c-3.67,13.85-23.245,40.396-23.245,40.396L337,244.116l29.416-32.337
			C366.416,211.779,369.986,216.263,376.204,215.242z"/>
		<path style="fill:#424242;" d="M319.055,396.574l-4.793,5.604c0,0-2.874,3.36,0.17,5.682c5.063,3.861,12.892,9.832,15.271,11.647
			c0.436,0.332,1.047,0.249,1.391-0.178c1.066-1.32,2.684-4.337-0.611-8.038c-6.669-7.049-4.579-9.493-4.579-9.493L319.055,396.574z
			"/>
		<g>
			<path style="fill:#424242;" d="M289.288,352.062l-7.316-1.88c0,0-4.387-1.127-5.14,2.531c-1.249,6.067-3.178,15.438-3.774,18.329
				c-0.111,0.539,0.234,1.052,0.769,1.176c1.687,0.39,5.208,0.571,7.122-3.905c3.452-8.839,6.644-8.019,6.644-8.019L289.288,352.062
				z"/>
		</g>
		<path style="fill:#8D6E63;" d="M351,310l4.609,56.15c0.058,2.085-0.818,4.087-2.387,5.461L326.375,403l-8.073-5.545
			c0,0,15.198-25.955,20.698-30.455c1.055-3.074,0-13,0-13L351,310z"/>
		<path style="fill:#FFE0B2;" d="M337.006,210.245c7.748,0.081,18,2,18,20c0,1.994-0.976,7.761-5.643,7.761
			s-22.863-5.293-22.863-16.381C326.5,211.735,332.39,210.197,337.006,210.245z"/>
		<path style="fill:#FFE0B2;" d="M346,243c0-3,0.677-4.966,3.524-7c3.522-2.516-13.063-3.408-13.063-3.408s-0.683,3.636-1.616,8.527
			C332.908,251.276,350,254,350.616,252.384C348.102,249.911,346,247.021,346,243z"/>
		<path style="fill:#A1887F;" d="M328.266,303.06c-0.599,1.891-1.131,3.931-1.485,6.128C325.342,318.128,326,332,329,356
			c-5.75-3.625-40.936-4.252-40.936-4.252l-1.605,9.462l46.413,10.464c3.222,0.474,6.346-1.338,7.535-4.37
			c0,0,10.594-37.304,12.594-62.304C342,305,328.176,303.04,328.266,303.06z"/>
		<path style="fill:#F59399;" d="M350.616,252.384C345,252,340,247,334.845,241.119c-1.937,10.157-4.954,25.728-5.18,25.41
			c0,0,2.575,9.2,3.168,14.179c1.008,8.452-4.657,22.332-4.567,22.351C340,307,348,310,352.639,308.83
			c0.14-1.303,0.262-2.582,0.361-3.83c1.04-12.997,2.5-27.062,2.5-27.062C355.809,273.949,359,267,359,263
			C359,258.815,354.353,256.06,350.616,252.384z"/>
		<path style="fill:#FFE0B2;" d="M321.042,288.167c0,0,6.53,12.292,13.871,21.525c3.165,3.982,6.087,4.4,6.087,9.016
			c0,2.394-2.021,3.276-4.479,3.276c-3.542,0-5.521,0-5.521-4.026c0-2.308-0.365-1.958-1.365-4.958
			c-1.642-4.927-14.433-13-19.635-22.545C318.564,276.605,321.042,288.167,321.042,288.167z"/>
		<path style="fill:#F59399;" d="M333.014,244.134c6.117,0,9.948,6.756,3.51,15.866c-4.894,6.925-7.521,10.818-11,17
			c-3.278,5.825-4.482,11.167-4.482,11.167s-1.257-5.083-11.042,2.288c0,0,1.805-16.81,6.524-26.455
			S327.326,244.134,333.014,244.134z"/>
		<path style="fill:#424242;" d="M296.524,267c2.133-3.984-4.195-8.049,0-14c4.154-5.894,10-4,10-11c0-4.471,2-12,9-13
			c4.082-0.583,6.253-1.902,7-5c2.665-11.06,8-15,16.16-14.99c3.503,0.004,7.677,0.409,10.172,3.332
			c0.427,0.5,0.637,1.159,0.581,1.814c-1.313,15.226-8.861,9.508-10.2,26.67c-0.642,8.23-16.013,21.029-21.713,27.174
			c-1.48,1.596-6.795,8.327-10.196,6.812c-5.438-2.422-7.574,1.66-10.536-0.396C294.529,272.846,294.436,270.901,296.524,267z"/>
	</g>
	<g>
		<path style="fill:none;stroke:#eeeeee;stroke-width:4;stroke-miterlimit:10;" d="M259.859,214.859
			c0,5.048,4.092,9.141,9.141,9.141"/>
		<path style="fill:none;stroke:#eeeeee;stroke-width:4;stroke-miterlimit:10;" d="M191.165,250.008
			c4.884-1.278,7.807-6.273,6.529-11.157"/>
		<path style="fill:none;stroke:#eeeeee;stroke-width:4;stroke-miterlimit:10;" d="M141,361c1.91,4.673,7.247,6.912,11.92,5.002"/>
		<path style="fill:none;stroke:#eeeeee;stroke-width:4;stroke-miterlimit:10;" d="M423,399.5c1.91,4.673,7.247,6.912,11.92,5.002"
			/>
		<path style="fill:none;stroke:#eeeeee;stroke-width:4;stroke-miterlimit:10;" d="M613.174,388.75
			c4.585,2.113,10.014,0.11,12.128-4.474"/>
		<path style="fill:none;stroke:#eeeeee;stroke-width:4;stroke-miterlimit:10;" d="M342.079,173.893
			c3.677,3.459,9.461,3.283,12.921-0.393"/>
		<path style="fill:none;stroke:#eeeeee;stroke-width:4;stroke-miterlimit:10;" d="M564.389,245
			c-1.452,4.835,1.29,9.932,6.125,11.384"/>
		<path style="fill:none;stroke:#eeeeee;stroke-width:4;stroke-miterlimit:10;" d="M386,326.559
			c4.53,2.229,10.008,0.363,12.237-4.167"/>
		<path style="fill:none;stroke:#eeeeee;stroke-width:4;stroke-miterlimit:10;" d="M512,213.516
			c3.677,3.459,9.461,3.283,12.921-0.393"/>
		<path style="fill:none;stroke:#eeeeee;stroke-width:4;stroke-miterlimit:10;" d="M552.895,198.591
			c4.328-2.599,5.73-8.214,3.131-12.542"/>
		<path style="fill:none;stroke:#eeeeee;stroke-width:4;stroke-miterlimit:10;" d="M149,313.184
			c4.875,1.312,9.89-1.577,11.202-6.452"/>
		<path style="fill:none;stroke:#eeeeee;stroke-width:4;stroke-miterlimit:10;" d="M537,367.452
			c4.875,1.312,9.89-1.577,11.202-6.452"/>
		<path style="fill:none;stroke:#eeeeee;stroke-width:4;stroke-miterlimit:10;" d="M471.515,176.84
			c-2.227,4.531-0.359,10.008,4.171,12.235"/>
		<path style="fill:none;stroke:#eeeeee;stroke-width:4;stroke-miterlimit:10;" d="M289.393,337.921
			c3.46-3.677,3.284-9.461-0.393-12.921"/>

			<rect x="379.356" y="382.856" transform="matrix(0.7071 -0.7071 0.7071 0.7071 -160.9699 383.666)" style="fill:#eeeeee;" width="6.57" height="6.57"/>

			<rect x="245.066" y="394.064" transform="matrix(0.7071 -0.7071 0.7071 0.7071 -208.2278 291.9914)" style="fill:#eeeeee;" width="6.57" height="6.57"/>

			<rect x="603.648" y="342.658" transform="matrix(0.7071 -0.7071 0.7071 0.7071 -66.8523 530.4905)" style="fill:#eeeeee;" width="6.57" height="6.57"/>

			<rect x="615.648" y="275.659" transform="matrix(0.7071 -0.7071 0.7071 0.7071 -15.962 519.3527)" style="fill:#eeeeee;" width="6.57" height="6.57"/>

			<rect x="235.358" y="258.858" transform="matrix(0.7071 -0.7071 0.7071 0.7071 -115.4661 245.5259)" style="fill:#eeeeee;" width="6.57" height="6.57"/>

			<rect x="179.359" y="332.565" transform="matrix(0.7071 -0.7071 0.7071 0.7071 -183.9866 227.5168)" style="fill:#eeeeee;" width="6.57" height="6.57"/>

			<rect x="310.064" y="207.066" transform="matrix(0.7071 -0.7071 0.7071 0.7071 -56.9627 283.1817)" style="fill:#eeeeee;" width="6.57" height="6.57"/>

			<rect x="408.355" y="273.565" transform="matrix(0.7071 -0.7071 0.7071 0.7071 -75.196 372.161)" style="fill:#eeeeee;" width="6.57" height="6.57"/>
		<path style="fill:none;stroke:#eeeeee;stroke-width:4;stroke-miterlimit:10;" d="M293,376.5c0,0,3,3,1,6c-1.966,2.948,1,6,1,6"/>
		<path style="fill:none;stroke:#eeeeee;stroke-width:4;stroke-miterlimit:10;" d="M569,297.5c0,0,3,3,1,6c-1.966,2.948,1,6,1,6"/>
		<path style="fill:none;stroke:#eeeeee;stroke-width:4;stroke-miterlimit:10;" d="M510,260.5c0,0,3,3,1,6c-1.966,2.948,1,6,1,6"/>
		<path style="fill:none;stroke:#eeeeee;stroke-width:4;stroke-miterlimit:10;" d="M492,325c0,0,3,3,1,6c-1.966,2.948,1,6,1,6"/>
		<path style="fill:none;stroke:#eeeeee;stroke-width:4;stroke-miterlimit:10;" d="M406.181,185.854c0,0,3,3,1,6
			c-1.966,2.948,1,6,1,6"/>
		<path style="fill:none;stroke:#eeeeee;stroke-width:4;stroke-miterlimit:10;" d="M269,284.5c0,0,3,3,1,6c-1.966,2.948,1,6,1,6"/>
		<path style="fill:none;stroke:#eeeeee;stroke-width:4;stroke-miterlimit:10;" d="M234,329.5c0,0,3,3,1,6c-1.966,2.948,1,6,1,6"/>
		<path style="fill:none;stroke:#eeeeee;stroke-width:4;stroke-miterlimit:10;" d="M416,343.5c0,0,3,3,1,6c-1.966,2.948,1,6,1,6"/>
		<path style="fill:none;stroke:#eeeeee;stroke-width:4;stroke-miterlimit:10;" d="M385,253.5c0,0,3,3,1,6c-1.966,2.948,1,6,1,6"/>
		<path style="fill:none;stroke:#eeeeee;stroke-width:4;stroke-miterlimit:10;" d="M208,287c0,0,3,3,1,6c-1.966,2.948,1,6,1,6"/>
	</g>
	<g>
		<path style="fill:none;stroke:#EEEEEE;stroke-width:4;stroke-miterlimit:10;" d="M411,443c1.899,1.257,7.137,2.123,12.679,1.504"
			/>
		<path style="fill:none;stroke:#EEEEEE;stroke-width:4;stroke-miterlimit:10;" d="M599,441.516
			c2.199-0.593,6.313-3.949,9.514-8.516"/>
		<path style="fill:none;stroke:#EEEEEE;stroke-width:4;stroke-miterlimit:10;" d="M376.175,440.309
			c2.272-0.16,6.953-2.664,10.971-6.531"/>
		<polygon style="fill:#EEEEEE;" points="511.859,448.942 508,443.625 513.942,442 517.177,445.083 		"/>
		<polygon style="fill:#EEEEEE;" points="568.859,448.942 565,443.625 570.942,442 574.177,445.083 		"/>
		<polygon style="fill:#EEEEEE;" points="334.682,445 330.823,439.682 336.766,438.058 340,441.141 		"/>
		<path style="fill:none;stroke:#EEEEEE;stroke-width:4;stroke-miterlimit:10;" d="M479.543,433.188c0,0,2.085,4.925-2.995,3.606
			c-6.037-1.568-4.323,5.206-4.323,5.206"/>
		<path style="fill:none;stroke:#EEEEEE;stroke-width:4;stroke-miterlimit:10;" d="M286.952,440.301c0,0-3.886,3.675-4.425-1.546
			c-0.64-6.205-6.388-2.232-6.388-2.232"/>
	</g>
</g>
</svg>
