<?xml version="1.0" encoding="UTF-8" standalone="no"?>
<svg
   xmlns:dc="http://purl.org/dc/elements/1.1/"
   xmlns:cc="http://creativecommons.org/ns#"
   xmlns:rdf="http://www.w3.org/1999/02/22-rdf-syntax-ns#"
   xmlns:svg="http://www.w3.org/2000/svg"
   xmlns="http://www.w3.org/2000/svg"
   xmlns:sodipodi="http://sodipodi.sourceforge.net/DTD/sodipodi-0.dtd"
   xmlns:inkscape="http://www.inkscape.org/namespaces/inkscape"
   inkscape:version="1.0 (4035a4fb49, 2020-05-01)"
   sodipodi:docname="awards2.svg"
   version="1.1"
   viewBox="0 0 823.4 532.22"
   data-name="Layer 1"
   id="af8914d0-424d-4586-aa97-94d43e307e1e">
  <metadata
     id="metadata129">
    <rdf:RDF>
      <cc:Work
         rdf:about="">
        <dc:format>image/svg+xml</dc:format>
        <dc:type
           rdf:resource="http://purl.org/dc/dcmitype/StillImage" />
        <dc:title>White logo2</dc:title>
      </cc:Work>
    </rdf:RDF>
  </metadata>
  <sodipodi:namedview
     inkscape:current-layer="af8914d0-424d-4586-aa97-94d43e307e1e"
     inkscape:window-maximized="1"
     inkscape:window-y="-8"
     inkscape:window-x="-8"
     inkscape:cy="217.32752"
     inkscape:cx="408.80495"
     inkscape:zoom="0.68314305"
     inkscape:pagecheckerboard="true"
     showgrid="false"
     id="namedview127"
     inkscape:window-height="961"
     inkscape:window-width="1280"
     inkscape:pageshadow="2"
     inkscape:pageopacity="0"
     guidetolerance="10"
     gridtolerance="10"
     objecttolerance="10"
     borderopacity="1"
     bordercolor="#666666"
     pagecolor="#ffffff" />
  <defs
     id="defs4">
    <style
       id="style2">.adeedb2f-695a-403d-8a69-d925e1331204{isolation:isolate;}.f1ef351f-9d86-4da5-90db-f5465ca34bfe{fill:#fff;}</style>
  </defs>
  <title
     id="title6">White logo2</title>
  <path
     id="path46"
     transform="translate(-143.32 -170.51)"
     d="M547.75,463.85s-4.89,14.55-34.38,17.78-42.09-3.16-42.09-3.16,19.67-15.33,38.54-16.11a264.09,264.09,0,0,1,37.93,1.56"
     class="f1ef351f-9d86-4da5-90db-f5465ca34bfe" />
  <path
     id="path48"
     transform="translate(-143.32 -170.51)"
     d="M547.75,463.85s2.22-15.27-22.22-32.09-38.4-17.29-38.4-17.29a74.91,74.91,0,0,0,27.73,32.93,226.86,226.86,0,0,0,33,16.45"
     class="f1ef351f-9d86-4da5-90db-f5465ca34bfe" />
  <path
     id="path50"
     transform="translate(-143.32 -170.51)"
     d="M512.77,452.94a99.76,99.76,0,0,0-37.78-6.8,76.77,76.77,0,0,0-39.82,11.8,119.39,119.39,0,0,0,41,6.8c24.18,0,36.58-11.8,36.58-11.8"
     class="f1ef351f-9d86-4da5-90db-f5465ca34bfe" />
  <path
     id="path52"
     transform="translate(-143.32 -170.51)"
     d="M484.91,438.47a99.73,99.73,0,0,0-12.07-36.4,76.89,76.89,0,0,0-29.31-29.33A120.14,120.14,0,0,0,457.13,412C468.68,433.27,485,438.52,485,438.52"
     class="f1ef351f-9d86-4da5-90db-f5465ca34bfe" />
  <path
     id="path54"
     transform="translate(-143.32 -170.51)"
     d="M473.62,436.43a99.55,99.55,0,0,0-35.12-15.56A77.1,77.1,0,0,0,397,423.09,119.73,119.73,0,0,0,435.3,439.4c23.52,5.67,38.32-2.91,38.32-2.91"
     class="f1ef351f-9d86-4da5-90db-f5465ca34bfe" />
  <path
     id="path56"
     transform="translate(-143.32 -170.51)"
     d="M454.06,418.87a100.08,100.08,0,0,0-26.42-27.8A77.15,77.15,0,0,0,388.55,377a120.4,120.4,0,0,0,29,29.76c19.51,14.31,36.47,12.11,36.47,12.11"
     class="f1ef351f-9d86-4da5-90db-f5465ca34bfe" />
  <path
     id="path58"
     transform="translate(-143.32 -170.51)"
     d="M434.66,389.31a94.91,94.91,0,0,0,4.07-36.26A73.35,73.35,0,0,0,425,316a113.65,113.65,0,0,0-3.87,39.36c1.53,23,13.51,34,13.51,34"
     class="f1ef351f-9d86-4da5-90db-f5465ca34bfe" />
  <path
     id="path60"
     transform="translate(-143.32 -170.51)"
     d="M419.26,375.38a86.64,86.64,0,0,0-20.16-26.31,66.45,66.45,0,0,0-32.26-15.56,103.44,103.44,0,0,0,22.22,28.2c15.56,14.09,30.22,13.78,30.22,13.78"
     class="f1ef351f-9d86-4da5-90db-f5465ca34bfe" />
  <path
     id="path62"
     transform="translate(-143.32 -170.51)"
     d="M410.5,346.36a86.25,86.25,0,0,0-9.62-31.71,66.55,66.55,0,0,0-24.73-26,103.79,103.79,0,0,0,10.91,34.22c9.51,18.6,23.44,23.49,23.44,23.49"
     class="f1ef351f-9d86-4da5-90db-f5465ca34bfe" />
  <path
     id="path64"
     transform="translate(-143.32 -170.51)"
     d="M404.42,303.85a86.56,86.56,0,0,0-5.27-32.74A66.73,66.73,0,0,0,378.24,242a103.61,103.61,0,0,0,6.2,35.38c6.91,19.71,20,26.44,20,26.44"
     class="f1ef351f-9d86-4da5-90db-f5465ca34bfe" />
  <path
     id="path66"
     transform="translate(-143.32 -170.51)"
     d="M410.3,275.87a86.77,86.77,0,0,0,7.52-32.29,66.44,66.44,0,0,0-8.34-34.89,104.2,104.2,0,0,0-7.75,35.16c-1.07,20.86,8.57,32.09,8.57,32.09"
     class="f1ef351f-9d86-4da5-90db-f5465ca34bfe" />
  <path
     id="path68"
     transform="translate(-143.32 -170.51)"
     d="M426.37,242.16A86.2,86.2,0,0,0,439,211.54a66.56,66.56,0,0,0-2.62-35.78,103.38,103.38,0,0,0-13.34,33.33c-4.44,20.42,3.25,33,3.25,33"
     class="f1ef351f-9d86-4da5-90db-f5465ca34bfe" />
  <path
     id="path70"
     transform="translate(-143.32 -170.51)"
     d="M411.26,328.09a86.26,86.26,0,0,0,18.56-27.46,66.71,66.71,0,0,0,4.6-35.56A103,103,0,0,0,414.73,295c-8.47,19.11-3.47,33-3.47,33"
     class="f1ef351f-9d86-4da5-90db-f5465ca34bfe" />
  <path
     id="path72"
     transform="translate(-143.32 -170.51)"
     d="M423,263.85a86.51,86.51,0,0,0,28.14-17.54,66.64,66.64,0,0,0,18.69-30.62,103.8,103.8,0,0,0-30.23,19.4c-15.55,14-16.6,28.76-16.6,28.76"
     class="f1ef351f-9d86-4da5-90db-f5465ca34bfe" />
  <path
     id="path74"
     transform="translate(-143.32 -170.51)"
     d="M443,224.67a86.64,86.64,0,0,0,25.47-21.22,66.72,66.72,0,0,0,14.31-32.94,104,104,0,0,0-27.27,23.4c-13.33,16-12.49,30.76-12.49,30.76"
     class="f1ef351f-9d86-4da5-90db-f5465ca34bfe" />
  <path
     id="path76"
     transform="translate(-143.32 -170.51)"
     d="M549.79,473c0,19.73-32.46,41.22-32.46,30.73S549.79,480,549.79,473"
     class="f1ef351f-9d86-4da5-90db-f5465ca34bfe" />
  <path
     id="path78"
     transform="translate(-143.32 -170.51)"
     d="M568.62,473c0,19.73,32.46,41.22,32.46,30.73S568.62,480,568.62,473"
     class="f1ef351f-9d86-4da5-90db-f5465ca34bfe" />
  <path
     id="path80"
     transform="translate(-143.32 -170.51)"
     d="M570.66,463.85s4.89,14.55,34.38,17.78,42.09-3.23,42.09-3.23-19.67-15.33-38.54-16.11a264.09,264.09,0,0,0-37.93,1.56"
     class="f1ef351f-9d86-4da5-90db-f5465ca34bfe" />
  <path
     id="path82"
     transform="translate(-143.32 -170.51)"
     d="M570.66,463.85s-2.22-15.27,22.22-32.09,38.51-17.29,38.51-17.29a74.91,74.91,0,0,1-27.73,32.93,226.36,226.36,0,0,1-33,16.45"
     class="f1ef351f-9d86-4da5-90db-f5465ca34bfe" />
  <path
     id="path84"
     transform="translate(-143.32 -170.51)"
     d="M605.64,452.94a99.76,99.76,0,0,1,37.78-6.8,76.77,76.77,0,0,1,39.82,11.8,119.75,119.75,0,0,1-41,6.8c-24.2,0-36.58-11.8-36.58-11.8"
     class="f1ef351f-9d86-4da5-90db-f5465ca34bfe" />
  <path
     id="path86"
     transform="translate(-143.32 -170.51)"
     d="M633.44,438.47a99.73,99.73,0,0,1,12.07-36.4,77,77,0,0,1,29.37-29.33A120.14,120.14,0,0,1,661.28,412c-11.55,21.27-27.84,26.52-27.84,26.52"
     class="f1ef351f-9d86-4da5-90db-f5465ca34bfe" />
  <path
     id="path88"
     transform="translate(-143.32 -170.51)"
     d="M644.91,436.43A99.43,99.43,0,0,1,680,420.87a77.14,77.14,0,0,1,41.49,2.22,120.33,120.33,0,0,1-38.29,16.31c-23.51,5.67-38.31-2.91-38.31-2.91"
     class="f1ef351f-9d86-4da5-90db-f5465ca34bfe" />
  <path
     id="path90"
     transform="translate(-143.32 -170.51)"
     d="M664.33,418.87a100.3,100.3,0,0,1,26.44-27.8A77.15,77.15,0,0,1,729.86,377a120.4,120.4,0,0,1-29,29.76c-19.51,14.31-36.49,12.11-36.49,12.11"
     class="f1ef351f-9d86-4da5-90db-f5465ca34bfe" />
  <path
     id="path92"
     transform="translate(-143.32 -170.51)"
     d="M683.75,389.31a94.91,94.91,0,0,1-4.07-36.26A73.47,73.47,0,0,1,693.39,316a113.65,113.65,0,0,1,3.87,39.36c-1.53,23-13.51,34-13.51,34"
     class="f1ef351f-9d86-4da5-90db-f5465ca34bfe" />
  <path
     id="path94"
     transform="translate(-143.32 -170.51)"
     d="M699.15,375.38a86,86,0,0,1,20.13-26.31,66.63,66.63,0,0,1,32.29-15.56,103.5,103.5,0,0,1-22.22,28.18c-15.56,14.09-30.22,13.78-30.22,13.78"
     class="f1ef351f-9d86-4da5-90db-f5465ca34bfe" />
  <path
     id="path96"
     transform="translate(-143.32 -170.51)"
     d="M707.88,346.36a86.46,86.46,0,0,1,9.63-31.71,66.55,66.55,0,0,1,24.73-26,103.21,103.21,0,0,1-10.89,34.22c-9.51,18.6-23.47,23.49-23.47,23.49"
     class="f1ef351f-9d86-4da5-90db-f5465ca34bfe" />
  <path
     id="path98"
     transform="translate(-143.32 -170.51)"
     d="M713.93,303.85a86.61,86.61,0,0,1,5.33-32.67,66.75,66.75,0,0,1,21-29.09,103.59,103.59,0,0,1-6.22,35.38c-6.91,19.71-20,26.44-20,26.44"
     class="f1ef351f-9d86-4da5-90db-f5465ca34bfe" />
  <path
     id="path100"
     transform="translate(-143.32 -170.51)"
     d="M708.11,275.87a86.77,86.77,0,0,1-7.52-32.29A66.66,66.66,0,0,1,709,208.69a103.59,103.59,0,0,1,7.64,35.16c1.09,20.86-8.55,32.09-8.55,32.09"
     class="f1ef351f-9d86-4da5-90db-f5465ca34bfe" />
  <path
     id="path102"
     transform="translate(-143.32 -170.51)"
     d="M692,242.16a86.39,86.39,0,0,1-12.67-30.62A66.56,66.56,0,0,1,682,175.76a103.38,103.38,0,0,1,13.34,33.33c4.44,20.42-3.22,33-3.22,33"
     class="f1ef351f-9d86-4da5-90db-f5465ca34bfe" />
  <path
     id="path104"
     transform="translate(-143.32 -170.51)"
     d="M707.13,328.09a86.09,86.09,0,0,1-18.56-27.46,66.71,66.71,0,0,1-4.6-35.56A103.22,103.22,0,0,1,703.68,295c8.47,19.11,3.47,33,3.47,33"
     class="f1ef351f-9d86-4da5-90db-f5465ca34bfe" />
  <path
     id="path106"
     transform="translate(-143.32 -170.51)"
     d="M695.42,263.85a86.58,86.58,0,0,1-28.16-17.47,66.74,66.74,0,0,1-18.69-30.62,103.42,103.42,0,0,1,30.22,19.4c15.56,14,16.6,28.75,16.6,28.75"
     class="f1ef351f-9d86-4da5-90db-f5465ca34bfe" />
  <path
     id="path108"
     transform="translate(-143.32 -170.51)"
     d="M675.35,224.67a86,86,0,0,1-25.44-21.22,66.64,66.64,0,0,1-14.29-32.94A103.62,103.62,0,0,1,662.82,194c13.33,16,12.49,30.76,12.49,30.76"
     class="f1ef351f-9d86-4da5-90db-f5465ca34bfe" />
</svg>
