<svg id="af8914d0-424d-4586-aa97-94d43e307e1e" data-name="Layer 1" xmlns="http://www.w3.org/2000/svg" viewBox="0 0 823.4 532.22"><defs><style>.adeedb2f-695a-403d-8a69-d925e1331204{isolation:isolate;}.f1ef351f-9d86-4da5-90db-f5465ca34bfe{fill:#fff;}</style></defs><title>White logo2</title><g class="adeedb2f-695a-403d-8a69-d925e1331204"><path class="f1ef351f-9d86-4da5-90db-f5465ca34bfe" d="M201.63,607.27c-.81-10.26-4.4-17.59-20-17.59-17.43,0-20.85,8-20.85,20.52,0,17.44,15.14,17.27,30.95,18.9,14.49,1.47,29.48,8.63,29.48,34.86,0,27-10.26,38.61-36.16,38.61h-3.1c-25.74,0-37.46-12.55-38.6-33.89h16.77c.82,10.59,5.54,18.74,21.67,18.74h3.09c17,0,20.37-8,20.37-22.64,0-20.53-13.52-20.86-29.16-22.16-14.66-1.14-31.44-8.31-31.44-32.25,0-23.3,10.59-35.35,37-35.35,24.92,0,35,11.57,36.16,32.25Z" transform="translate(-143.32 -170.51)"/></g><g class="adeedb2f-695a-403d-8a69-d925e1331204"><path class="f1ef351f-9d86-4da5-90db-f5465ca34bfe" d="M271.37,591.31V701.92H255.89V591.31H229.83V577h67.6v14.34Z" transform="translate(-143.32 -170.51)"/></g><g class="adeedb2f-695a-403d-8a69-d925e1331204"><path class="f1ef351f-9d86-4da5-90db-f5465ca34bfe" d="M356.08,701.92l-6.36-23.3H312.09l-6.35,23.3H289.62L323,576.65h15.8L372,701.92ZM330.83,596.85l-8.47,40.88L316,664h29.65l-6.51-26.72Z" transform="translate(-143.32 -170.51)"/></g><g class="adeedb2f-695a-403d-8a69-d925e1331204"><path class="f1ef351f-9d86-4da5-90db-f5465ca34bfe" d="M430.87,654.51l27.2,47.41H439.83l-25.25-46.43H400.41v46.59H384.93V576.16l33.72-.16c22,0,35.67,9.12,35.67,34.37v8.79C454.32,639.2,448.3,651.09,430.87,654.51Zm-30.46-63.69v49.85h18.24c13.85,0,20.2-4.24,20.2-21.51v-8.79c0-17.27-6.35-18.73-20.2-19.55Z" transform="translate(-143.32 -170.51)"/></g><g class="adeedb2f-695a-403d-8a69-d925e1331204"><path class="f1ef351f-9d86-4da5-90db-f5465ca34bfe" d="M532.69,701.92h-14l-1.3-12.87c-3.42,7-12.71,13.68-24.27,13.68-21.83,0-27.21-11.57-28.35-22.8-1.63-16.78,9.78-28.84,29.32-31.61,7.5-1.14,15.48-1.3,23-1.46v-9.29c0-10.75-3.74-17.76-18.08-17.76-9,0-15.15,3.1-15,16H468.83c-.65-21.18,10.43-30.14,30.63-30.14,20.85,0,33.23,8.8,33.23,31.93Zm-37.3-40.57c-10.59,2.28-16.13,7.33-15,16.62.65,7.49,7.33,9.94,14.33,9.94,17.11,0,22.16-12.55,22.65-28.18C513,659.73,503.53,659.56,495.39,661.35Z" transform="translate(-143.32 -170.51)"/></g><g class="adeedb2f-695a-403d-8a69-d925e1331204"><path class="f1ef351f-9d86-4da5-90db-f5465ca34bfe" d="M644.94,606.62h16.29l-27.37,95.46H618.39l-7.82-27.86-8.48-37-8.63,37.47-7.65,27.37H570.33L543,606.62h16.29L569,638.39c4.23,14.33,6.68,30,9.12,42,2.44-12.38,5.05-24.92,9.45-42.35l8.79-31.44H607.8l9,31.44c4.4,17.43,6.84,30,9.28,42.35,2.45-12,4.89-27.69,9.12-42Z" transform="translate(-143.32 -170.51)"/></g><g class="adeedb2f-695a-403d-8a69-d925e1331204"><path class="f1ef351f-9d86-4da5-90db-f5465ca34bfe" d="M735.36,701.92h-14L720,689.05c-3.42,7-12.7,13.68-24.27,13.68-21.83,0-27.2-11.57-28.34-22.8-1.63-16.78,9.77-28.84,29.32-31.61,7.49-1.14,15.48-1.3,23-1.46v-9.29c0-10.75-3.75-17.76-18.08-17.76-9,0-15.15,3.1-15,16H671.5c-.65-21.18,10.43-30.14,30.63-30.14,20.85,0,33.23,8.8,33.23,31.93Zm-37.31-40.57c-10.59,2.28-16.12,7.33-15,16.62.65,7.49,7.33,9.94,14.33,9.94,17.11,0,22.16-12.55,22.64-28.18C715.65,659.73,706.2,659.56,698.05,661.35Z" transform="translate(-143.32 -170.51)"/></g><g class="adeedb2f-695a-403d-8a69-d925e1331204"><path class="f1ef351f-9d86-4da5-90db-f5465ca34bfe" d="M797.6,622.42c-15-2.44-26.71,3.75-26.71,18.41v61.25H755.41V606.62h14.17l.66,8.8c4.72-7.17,15.64-11.24,27.36-8.8Z" transform="translate(-143.32 -170.51)"/></g><g class="adeedb2f-695a-403d-8a69-d925e1331204"><path class="f1ef351f-9d86-4da5-90db-f5465ca34bfe" d="M879.72,701.92h-13l-2-12.55c-2.93,8.31-12.54,13-23.62,13-19.06,0-32.25-8.63-32.25-34.37V643c0-25.74,12.22-37,32.25-37,10.26,0,17.76,1.47,23,8.31V574.53h15.64Zm-35.19-81c-13.84,0-20.2,5.53-20.2,22.31V668.2c0,15.63,6.36,19.71,19.06,19.71,13.2-.49,20.69-6.19,20.69-24.93V642.46C864.08,626.17,858.38,621,844.53,621Z" transform="translate(-143.32 -170.51)"/><path class="f1ef351f-9d86-4da5-90db-f5465ca34bfe" d="M949.28,633.5c0-9-5.37-14-17.43-14-10.75,0-17.1,4.89-17.1,15.15,0,11.24,8.63,11.08,20.2,12.05,14.5,1.31,31.76,3.42,31.76,26.56,0,19.87-14,29.48-33.72,29.48-21.83,0-33.72-10.1-34.53-30.3H914.1c.81,12.05,9,16.13,18.89,16.13,11.73,0,18.25-6,18.25-15.15,0-11.24-11.08-12.22-22.81-13-11.56-.82-29.16-4.24-29.16-25.74,0-16.78,10.76-29.16,33.07-29.16,22,0,32.26,10.43,31.77,28Z" transform="translate(-143.32 -170.51)"/></g><path class="f1ef351f-9d86-4da5-90db-f5465ca34bfe" d="M547.75,463.85s-4.89,14.55-34.38,17.78-42.09-3.16-42.09-3.16,19.67-15.33,38.54-16.11a264.09,264.09,0,0,1,37.93,1.56" transform="translate(-143.32 -170.51)"/><path class="f1ef351f-9d86-4da5-90db-f5465ca34bfe" d="M547.75,463.85s2.22-15.27-22.22-32.09-38.4-17.29-38.4-17.29a74.91,74.91,0,0,0,27.73,32.93,226.86,226.86,0,0,0,33,16.45" transform="translate(-143.32 -170.51)"/><path class="f1ef351f-9d86-4da5-90db-f5465ca34bfe" d="M512.77,452.94a99.76,99.76,0,0,0-37.78-6.8,76.77,76.77,0,0,0-39.82,11.8,119.39,119.39,0,0,0,41,6.8c24.18,0,36.58-11.8,36.58-11.8" transform="translate(-143.32 -170.51)"/><path class="f1ef351f-9d86-4da5-90db-f5465ca34bfe" d="M484.91,438.47a99.73,99.73,0,0,0-12.07-36.4,76.89,76.89,0,0,0-29.31-29.33A120.14,120.14,0,0,0,457.13,412C468.68,433.27,485,438.52,485,438.52" transform="translate(-143.32 -170.51)"/><path class="f1ef351f-9d86-4da5-90db-f5465ca34bfe" d="M473.62,436.43a99.55,99.55,0,0,0-35.12-15.56A77.1,77.1,0,0,0,397,423.09,119.73,119.73,0,0,0,435.3,439.4c23.52,5.67,38.32-2.91,38.32-2.91" transform="translate(-143.32 -170.51)"/><path class="f1ef351f-9d86-4da5-90db-f5465ca34bfe" d="M454.06,418.87a100.08,100.08,0,0,0-26.42-27.8A77.15,77.15,0,0,0,388.55,377a120.4,120.4,0,0,0,29,29.76c19.51,14.31,36.47,12.11,36.47,12.11" transform="translate(-143.32 -170.51)"/><path class="f1ef351f-9d86-4da5-90db-f5465ca34bfe" d="M434.66,389.31a94.91,94.91,0,0,0,4.07-36.26A73.35,73.35,0,0,0,425,316a113.65,113.65,0,0,0-3.87,39.36c1.53,23,13.51,34,13.51,34" transform="translate(-143.32 -170.51)"/><path class="f1ef351f-9d86-4da5-90db-f5465ca34bfe" d="M419.26,375.38a86.64,86.64,0,0,0-20.16-26.31,66.45,66.45,0,0,0-32.26-15.56,103.44,103.44,0,0,0,22.22,28.2c15.56,14.09,30.22,13.78,30.22,13.78" transform="translate(-143.32 -170.51)"/><path class="f1ef351f-9d86-4da5-90db-f5465ca34bfe" d="M410.5,346.36a86.25,86.25,0,0,0-9.62-31.71,66.55,66.55,0,0,0-24.73-26,103.79,103.79,0,0,0,10.91,34.22c9.51,18.6,23.44,23.49,23.44,23.49" transform="translate(-143.32 -170.51)"/><path class="f1ef351f-9d86-4da5-90db-f5465ca34bfe" d="M404.42,303.85a86.56,86.56,0,0,0-5.27-32.74A66.73,66.73,0,0,0,378.24,242a103.61,103.61,0,0,0,6.2,35.38c6.91,19.71,20,26.44,20,26.44" transform="translate(-143.32 -170.51)"/><path class="f1ef351f-9d86-4da5-90db-f5465ca34bfe" d="M410.3,275.87a86.77,86.77,0,0,0,7.52-32.29,66.44,66.44,0,0,0-8.34-34.89,104.2,104.2,0,0,0-7.75,35.16c-1.07,20.86,8.57,32.09,8.57,32.09" transform="translate(-143.32 -170.51)"/><path class="f1ef351f-9d86-4da5-90db-f5465ca34bfe" d="M426.37,242.16A86.2,86.2,0,0,0,439,211.54a66.56,66.56,0,0,0-2.62-35.78,103.38,103.38,0,0,0-13.34,33.33c-4.44,20.42,3.25,33,3.25,33" transform="translate(-143.32 -170.51)"/><path class="f1ef351f-9d86-4da5-90db-f5465ca34bfe" d="M411.26,328.09a86.26,86.26,0,0,0,18.56-27.46,66.71,66.71,0,0,0,4.6-35.56A103,103,0,0,0,414.73,295c-8.47,19.11-3.47,33-3.47,33" transform="translate(-143.32 -170.51)"/><path class="f1ef351f-9d86-4da5-90db-f5465ca34bfe" d="M423,263.85a86.51,86.51,0,0,0,28.14-17.54,66.64,66.64,0,0,0,18.69-30.62,103.8,103.8,0,0,0-30.23,19.4c-15.55,14-16.6,28.76-16.6,28.76" transform="translate(-143.32 -170.51)"/><path class="f1ef351f-9d86-4da5-90db-f5465ca34bfe" d="M443,224.67a86.64,86.64,0,0,0,25.47-21.22,66.72,66.72,0,0,0,14.31-32.94,104,104,0,0,0-27.27,23.4c-13.33,16-12.49,30.76-12.49,30.76" transform="translate(-143.32 -170.51)"/><path class="f1ef351f-9d86-4da5-90db-f5465ca34bfe" d="M549.79,473c0,19.73-32.46,41.22-32.46,30.73S549.79,480,549.79,473" transform="translate(-143.32 -170.51)"/><path class="f1ef351f-9d86-4da5-90db-f5465ca34bfe" d="M568.62,473c0,19.73,32.46,41.22,32.46,30.73S568.62,480,568.62,473" transform="translate(-143.32 -170.51)"/><path class="f1ef351f-9d86-4da5-90db-f5465ca34bfe" d="M570.66,463.85s4.89,14.55,34.38,17.78,42.09-3.23,42.09-3.23-19.67-15.33-38.54-16.11a264.09,264.09,0,0,0-37.93,1.56" transform="translate(-143.32 -170.51)"/><path class="f1ef351f-9d86-4da5-90db-f5465ca34bfe" d="M570.66,463.85s-2.22-15.27,22.22-32.09,38.51-17.29,38.51-17.29a74.91,74.91,0,0,1-27.73,32.93,226.36,226.36,0,0,1-33,16.45" transform="translate(-143.32 -170.51)"/><path class="f1ef351f-9d86-4da5-90db-f5465ca34bfe" d="M605.64,452.94a99.76,99.76,0,0,1,37.78-6.8,76.77,76.77,0,0,1,39.82,11.8,119.75,119.75,0,0,1-41,6.8c-24.2,0-36.58-11.8-36.58-11.8" transform="translate(-143.32 -170.51)"/><path class="f1ef351f-9d86-4da5-90db-f5465ca34bfe" d="M633.44,438.47a99.73,99.73,0,0,1,12.07-36.4,77,77,0,0,1,29.37-29.33A120.14,120.14,0,0,1,661.28,412c-11.55,21.27-27.84,26.52-27.84,26.52" transform="translate(-143.32 -170.51)"/><path class="f1ef351f-9d86-4da5-90db-f5465ca34bfe" d="M644.91,436.43A99.43,99.43,0,0,1,680,420.87a77.14,77.14,0,0,1,41.49,2.22,120.33,120.33,0,0,1-38.29,16.31c-23.51,5.67-38.31-2.91-38.31-2.91" transform="translate(-143.32 -170.51)"/><path class="f1ef351f-9d86-4da5-90db-f5465ca34bfe" d="M664.33,418.87a100.3,100.3,0,0,1,26.44-27.8A77.15,77.15,0,0,1,729.86,377a120.4,120.4,0,0,1-29,29.76c-19.51,14.31-36.49,12.11-36.49,12.11" transform="translate(-143.32 -170.51)"/><path class="f1ef351f-9d86-4da5-90db-f5465ca34bfe" d="M683.75,389.31a94.91,94.91,0,0,1-4.07-36.26A73.47,73.47,0,0,1,693.39,316a113.65,113.65,0,0,1,3.87,39.36c-1.53,23-13.51,34-13.51,34" transform="translate(-143.32 -170.51)"/><path class="f1ef351f-9d86-4da5-90db-f5465ca34bfe" d="M699.15,375.38a86,86,0,0,1,20.13-26.31,66.63,66.63,0,0,1,32.29-15.56,103.5,103.5,0,0,1-22.22,28.18c-15.56,14.09-30.22,13.78-30.22,13.78" transform="translate(-143.32 -170.51)"/><path class="f1ef351f-9d86-4da5-90db-f5465ca34bfe" d="M707.88,346.36a86.46,86.46,0,0,1,9.63-31.71,66.55,66.55,0,0,1,24.73-26,103.21,103.21,0,0,1-10.89,34.22c-9.51,18.6-23.47,23.49-23.47,23.49" transform="translate(-143.32 -170.51)"/><path class="f1ef351f-9d86-4da5-90db-f5465ca34bfe" d="M713.93,303.85a86.61,86.61,0,0,1,5.33-32.67,66.75,66.75,0,0,1,21-29.09,103.59,103.59,0,0,1-6.22,35.38c-6.91,19.71-20,26.44-20,26.44" transform="translate(-143.32 -170.51)"/><path class="f1ef351f-9d86-4da5-90db-f5465ca34bfe" d="M708.11,275.87a86.77,86.77,0,0,1-7.52-32.29A66.66,66.66,0,0,1,709,208.69a103.59,103.59,0,0,1,7.64,35.16c1.09,20.86-8.55,32.09-8.55,32.09" transform="translate(-143.32 -170.51)"/><path class="f1ef351f-9d86-4da5-90db-f5465ca34bfe" d="M692,242.16a86.39,86.39,0,0,1-12.67-30.62A66.56,66.56,0,0,1,682,175.76a103.38,103.38,0,0,1,13.34,33.33c4.44,20.42-3.22,33-3.22,33" transform="translate(-143.32 -170.51)"/><path class="f1ef351f-9d86-4da5-90db-f5465ca34bfe" d="M707.13,328.09a86.09,86.09,0,0,1-18.56-27.46,66.71,66.71,0,0,1-4.6-35.56A103.22,103.22,0,0,1,703.68,295c8.47,19.11,3.47,33,3.47,33" transform="translate(-143.32 -170.51)"/><path class="f1ef351f-9d86-4da5-90db-f5465ca34bfe" d="M695.42,263.85a86.58,86.58,0,0,1-28.16-17.47,66.74,66.74,0,0,1-18.69-30.62,103.42,103.42,0,0,1,30.22,19.4c15.56,14,16.6,28.75,16.6,28.75" transform="translate(-143.32 -170.51)"/><path class="f1ef351f-9d86-4da5-90db-f5465ca34bfe" d="M675.35,224.67a86,86,0,0,1-25.44-21.22,66.64,66.64,0,0,1-14.29-32.94A103.62,103.62,0,0,1,662.82,194c13.33,16,12.49,30.76,12.49,30.76" transform="translate(-143.32 -170.51)"/><path class="f1ef351f-9d86-4da5-90db-f5465ca34bfe" d="M569.88,247.27v40l-4.57,11.11H553.93l-4.45-11.11v-40a3.42,3.42,0,0,1,3.38-3.42h13.62a3.42,3.42,0,0,1,3.4,3.42" transform="translate(-143.32 -170.51)"/><path class="f1ef351f-9d86-4da5-90db-f5465ca34bfe" d="M521.24,259.8l28.24,27.47,4.58,11.11-8,8L535,301.78l-27.4-28.31a3.4,3.4,0,0,1,0-4.78l8.89-8.89a3.42,3.42,0,0,1,4.78,0" transform="translate(-143.32 -170.51)"/><path class="f1ef351f-9d86-4da5-90db-f5465ca34bfe" d="M495,301.63h40l11.11,4.44v11.31L535,321.83H495a3.44,3.44,0,0,1-3.31-3.12V305.09a3.43,3.43,0,0,1,3.31-3.46" transform="translate(-143.32 -170.51)"/><path class="f1ef351f-9d86-4da5-90db-f5465ca34bfe" d="M506.84,350.31l28.2-28.2,11.11-4.57,8,8-4.58,11.12-28.29,27.53a3.45,3.45,0,0,1-4.71,0L507,355.27a3.4,3.4,0,0,1,0-4.8h0" transform="translate(-143.32 -170.51)"/><path class="f1ef351f-9d86-4da5-90db-f5465ca34bfe" d="M549.48,376.56v-40l4.45-11.11h11.31l4.55,11.11v40a3.44,3.44,0,0,1-3.4,3.4H552.77a3.44,3.44,0,0,1-3.29-3.4" transform="translate(-143.32 -170.51)"/><path class="f1ef351f-9d86-4da5-90db-f5465ca34bfe" d="M598.08,363.85l-28.2-27.4-4.57-11.11,8-8,11.11,4.44L611.86,350a3.42,3.42,0,0,1,0,4.8L603,363.71a3.42,3.42,0,0,1-4.8,0" transform="translate(-143.32 -170.51)"/><path class="f1ef351f-9d86-4da5-90db-f5465ca34bfe" d="M624.31,322.11h-40l-11.12-4.44V306.25l11.12-4.45h40a3.39,3.39,0,0,1,3.4,3.36v13.67a3.39,3.39,0,0,1-3.36,3.4h0" transform="translate(-143.32 -170.51)"/><path class="f1ef351f-9d86-4da5-90db-f5465ca34bfe" d="M611.71,273.49l-27.4,28.14-11.12,4.57-8-8,4.57-11.12L598,259.65a3.42,3.42,0,0,1,4.8,0l8.89,8.89a3.42,3.42,0,0,1,0,4.8" transform="translate(-143.32 -170.51)"/></svg>