<?xml version="1.0" encoding="UTF-8" standalone="no"?>
<svg
   xmlns:dc="http://purl.org/dc/elements/1.1/"
   xmlns:cc="http://creativecommons.org/ns#"
   xmlns:rdf="http://www.w3.org/1999/02/22-rdf-syntax-ns#"
   xmlns:svg="http://www.w3.org/2000/svg"
   xmlns="http://www.w3.org/2000/svg"
   xmlns:sodipodi="http://sodipodi.sourceforge.net/DTD/sodipodi-0.dtd"
   xmlns:inkscape="http://www.inkscape.org/namespaces/inkscape"
   sodipodi:docname="ESN Awards 2021 new.svg"
   inkscape:version="1.0 (4035a4fb49, 2020-05-01)"
   id="svg964"
   version="1.1"
   viewBox="-9 0 233.85792 178.96153"
   height="676.39001"
   width="823.40002">
  <defs
     id="defs958">
    <style
       id="style1706">.cls-1{fill:#fff;}.cls-2{fill:#00aeef;}.cls-3{fill:#f47b20;}.cls-4{fill:#7ac143;}.cls-5{fill:#ec008c;}</style>
  </defs>
  <sodipodi:namedview
     inkscape:window-maximized="0"
     inkscape:window-y="105"
     inkscape:window-x="298"
     inkscape:window-height="1030"
     inkscape:window-width="1424"
     units="px"
     showgrid="false"
     inkscape:document-rotation="0"
     inkscape:current-layer="layer1"
     inkscape:document-units="px"
     inkscape:cy="773.61106"
     inkscape:cx="515.40908"
     inkscape:zoom="0.49497475"
     inkscape:pageshadow="2"
     inkscape:pageopacity="0.0"
     borderopacity="1.0"
     bordercolor="#666666"
     pagecolor="#ffffff"
     id="base" />
  <metadata
     id="metadata961">
    <rdf:RDF>
      <cc:Work
         rdf:about="">
        <dc:format>image/svg+xml</dc:format>
        <dc:type
           rdf:resource="http://purl.org/dc/dcmitype/StillImage" />
        <dc:title></dc:title>
      </cc:Work>
    </rdf:RDF>
  </metadata>
  <g
     id="layer1"
     inkscape:groupmode="layer"
     inkscape:label="Layer 1">
    <text
       xml:space="preserve"
       style="font-style:normal;font-variant:normal;font-weight:normal;font-stretch:normal;font-size:44.0972px;line-height:1.25;font-family:'Kelson Sans';-inkscape-font-specification:'Kelson Sans, Normal';font-variant-ligatures:normal;font-variant-caps:normal;font-variant-numeric:normal;font-variant-east-asian:normal;text-align:center;text-anchor:middle;stroke-width:0.264583"
       x="107.87606"
       y="143.95462"
       id="text1072"><tspan
         sodipodi:role="line"
         id="tspan1070"
         x="107.87606"
         y="143.95462"
         style="font-style:normal;font-variant:normal;font-weight:normal;font-stretch:normal;font-size:44.0972px;font-family:'Kelson Sans';-inkscape-font-specification:'Kelson Sans, Normal';font-variant-ligatures:normal;font-variant-caps:normal;font-variant-numeric:normal;font-variant-east-asian:normal;fill:#ffffff;fill-opacity:1;stroke-width:0.264583">ESN Awards</tspan></text>
    <g
       transform="matrix(0.15842419,0,0,0.15842404,41.567789,-20.290951)"
       id="white_full">
      <path
         class="cls-1"
         d="m 314.39,657.9 c -1.6,-3.09 -4.91,-10.3 -10.06,-21.73 -4,-9.16 -7.55,-16.25 -10.76,-21.17 -6.41,-10 -14.42,-16.7 -23.8,-20 h -0.57 c 3.32,5.49 5.49,13.27 6.64,23.11 1.6,12.47 3,20.36 4,23.8 -14.76,4.68 -24.48,7.32 -29.17,8 -7.55,1.15 -14,0.8 -19.11,-1 A 120.35,120.35 0 0 0 248,661 a 17.11,17.11 0 0 0 2.63,2 q 15.45,9.76 42.9,1.37 c 1.83,-0.46 5.27,-1.49 10.41,-3 4.47,-1.61 8,-2.75 10.41,-3.44 z"
         id="path1712" />
      <path
         class="cls-1"
         d="m 269.77,630.44 a 67,67 0 0 1 -19.1,2.75 95.67,95.67 0 0 1 -26.77,-3.78 71.93,71.93 0 0 1 -10.76,-3.66 76.25,76.25 0 0 1 -24.48,-15.1 c 3.43,0 11.55,-1.37 24.48,-4.35 3.89,-0.91 7.44,-1.48 10.76,-1.94 a 44.75,44.75 0 0 1 11.1,0 c 0.23,-17.73 -1.95,-32 -6.41,-42.9 8.69,4 16.13,11 22.08,21 3.2,5.6 6.52,13.27 10.07,23.11 5.15,14.53 8.23,22.88 9,24.82 z"
         id="path1714" />
      <path
         class="cls-1"
         d="m 213.14,596.58 c 3.21,-0.23 6.75,-0.57 10.76,-1 h 1 c -0.23,-0.11 -0.46,-0.57 -0.69,-1.26 a 2,2 0 0 0 -0.34,-1.37 c -1.6,-5.15 -3.32,-13.27 -5.38,-24.49 a 213.51,213.51 0 0 0 -5.38,-24.14 c -3.32,-10.06 -8.12,-17.5 -14.41,-22.42 h -1.26 l -5,47.59 -23.1,-4 -15.79,-3.09 q 5,3.43 15.79,16.82 a 52.93,52.93 0 0 0 11,11.1 c 6.75,4.92 17.73,7 32.83,6.29 z"
         id="path1716" />
      <path
         class="cls-1"
         d="m 518.84,667.28 c 7,0.23 16.93,3.89 29.86,10.76 6.87,3.77 12.7,6.29 17.39,7.44 a 42.28,42.28 0 0 1 -17.39,7.32 54.6,54.6 0 0 1 -27.12,0 c -3.65,-0.92 -9.15,-3.78 -16.81,-8.7 -6.29,-4 -11.79,-6.06 -16.71,-6.06 q -46,13.38 -45.64,13 c 3.2,2.29 10.18,4.69 21.16,7.44 9.84,2.4 16.59,5.49 20.48,9 l -6.75,12.69 a 32.67,32.67 0 0 1 -3.66,2.07 q -4.47,-1.73 -29.18,-14.76 c -12.12,-6.53 -22.31,-9.84 -30.54,-10.07 -5.61,3 -13.84,6.75 -24.83,11.44 q -17.33,7.73 -24.37,11.32 c -3.2,-1.25 -6.29,-6.4 -9.38,-15.33 v -2.4 l 41.53,-13 C 384.07,681.81 369.77,678 354,678 c -21.74,12.58 -41.76,16.13 -60.41,10.75 a 57,57 0 0 1 -14.64,-7.43 16.8,16.8 0 0 0 -6.07,-3.66 c 6.07,0.68 12.93,0 20.71,-2 3.89,-1.14 9.61,-3.09 17.51,-5.72 7.32,-2.75 13.15,-4.58 17.38,-5.72 Q 310.81,634.7 308.69,619.6 a 4.43,4.43 0 0 1 -1.6,-3.66 0.62,0.62 0 0 0 0.57,-0.35 c 10.3,3.44 20.14,11.22 29.52,23.46 12.59,16.13 20.94,26 25.17,29.52 q 62.64,30.2 127.68,-5 27.8,-39.81 47.59,-45.87 c -4.69,17.84 -7.09,28.25 -7.32,31.11 -6.75,10.07 -10.64,15.56 -11.78,16.48 0,1.14 0.11,1.72 0.34,1.94 z"
         id="path1718" />
      <path
         class="cls-1"
         d="m 179.62,555.05 a 29.72,29.72 0 0 0 -5,-2.4 c -2.4,-0.8 -4.24,-1.49 -5.26,-1.95 -18.65,-7.43 -31.35,-14.76 -38.22,-22.08 a 63.21,63.21 0 0 1 -7.78,-11.44 c -1.71,-2.06 -2.74,-3.31 -3,-4 5.38,0.45 8.92,0.91 10.75,1.26 14.3,2 25.17,4.91 32.84,8.8 l 5.38,-17.5 7.67,-25.06 h 0.69 c 7.09,9.16 10.29,20.71 9.38,34.79 -0.23,7.2 -2.52,19.67 -6.75,37.52 a 3.68,3.68 0 0 0 -0.69,2.06 z"
         id="path1720" />
      <path
         class="cls-1"
         d="m 624.09,615 c -7.55,-1 -14.07,-0.8 -19.44,0.68 a 5.1,5.1 0 0 1 0,-2.63 c 3.2,-4.69 5.14,-12.81 6.06,-24.14 0.69,-11.21 2.4,-18.76 5.37,-22.76 a 9,9 0 0 0 -3.65,0.91 20.73,20.73 0 0 1 -4.12,1.37 41.65,41.65 0 0 0 -13.39,13.05 c -3.55,5.61 -7.09,14.53 -10.75,26.88 -3.78,13.39 -6.87,22.43 -9.38,27.12 4.69,-0.46 11.44,-0.23 20.13,0.69 q 21.11,1.71 29.17,0.68 a 45,45 0 0 0 17.4,-6.06 c 7,-5.15 10.75,-8.35 11.44,-9.73 a 5.83,5.83 0 0 0 1,-3 h -1 q -4,0.35 -28.84,-3.09 z"
         id="path1722" />
      <path
         class="cls-1"
         d="m 699.15,489.72 c -10.42,-25.28 -15.68,-40 -15.68,-44.28 l -0.68,-0.33 -1,0.33 v 0.69 a 28.17,28.17 0 0 1 -3,4 q -11.84,26.43 3,63.73 a 69.52,69.52 0 0 0 4,9.37 c 3.32,-3.43 8.35,-6.75 15.1,-10.06 8.93,-4.46 14.42,-7.32 16.48,-8.36 a 7.51,7.51 0 0 1 1.26,-1 5.46,5.46 0 0 1 1.37,-1 c 9.15,-8.23 14.64,-19.79 16.47,-34.55 -13.27,5.84 -19.56,8.58 -19.1,8.36 -7.67,3.66 -13.73,8 -18.19,13.15 z"
         id="path1724" />
      <path
         class="cls-1"
         d="m 745.48,414 c 3.55,-2.74 5.26,-4.11 5,-4.11 1.48,14.53 -3,27.23 -13.5,37.86 -1.72,1.61 -8.36,7.9 -19.68,18.88 -3.66,3.32 -7.09,6.3 -10.41,9 -0.46,-5.15 -5.15,-17.5 -14.08,-36.95 q -10.46,-22.14 -2.05,-39.47 h 1 l 24.82,38.55 c 0,-0.23 0.23,-0.45 0.69,-0.68 13.38,-13.16 22.76,-20.94 28.14,-23.12 z"
         id="path1726" />
      <path
         class="cls-1"
         d="m 652.93,575.87 a 251.86,251.86 0 0 1 28.83,-4.69 c 6.29,-0.91 9.15,-1.26 8.69,-1 a 44.57,44.57 0 0 1 -8.69,12 q -10.12,10.13 -28.83,16.48 a 178.19,178.19 0 0 1 -18.77,5 c -3.09,0.23 -6.52,0.57 -10.07,1 -4,0.58 -7.09,1.15 -9.38,1.6 3.09,-6.06 6.29,-17 9.38,-33.17 4,-20.37 10.76,-34.1 20.14,-41.19 l 0.34,0.69 c -0.22,3.08 0.58,10.52 2.29,22.42 1.15,9.38 0.8,16.93 -0.91,22.76 a 41.54,41.54 0 0 1 7,-1.94 z"
         id="path1728" />
      <path
         class="cls-1"
         d="m 131.11,500.13 a 61.3,61.3 0 0 0 27.12,9.61 q 17,-41.17 6.4,-70 l -0.68,-0.34 a 57.13,57.13 0 0 0 -2.75,7.1 44.59,44.59 0 0 1 -3,7 c -9.61,15.68 -14.64,24 -15.11,25.18 -3.54,-2.41 -7.54,-5.15 -12,-8 -10.52,-6.52 -18.3,-12.93 -23.22,-19.11 4.35,20.94 10.18,35.7 17.85,44.16 a 64.09,64.09 0 0 0 5.37,4.46 z"
         id="path1730" />
      <path
         class="cls-1"
         d="m 598.35,653.9 a 26.51,26.51 0 0 1 -3.43,-1 c -12.24,-4 -22.76,-6.41 -31.46,-7.32 a 5.62,5.62 0 0 1 0.34,-1.72 c 3.55,-4.46 6.07,-12.81 7.32,-25.06 1.25,-12.25 3.78,-20.36 8.13,-24.82 l -0.35,-0.35 q -18.2,8.07 -30.2,30.21 c -2.52,4.46 -5.49,10.64 -9,18.76 -4,8.92 -6.86,15.1 -8.35,18.77 a 80.73,80.73 0 0 1 17.39,3 c 20.6,5.14 34,7.32 40.27,6.41 l 5.95,-1.38 c 9.38,-2.86 16,-7.55 19.79,-14.07 0.23,0 -5.26,-0.46 -16.36,-1.37 z"
         id="path1732" />
      <path
         class="cls-1"
         d="m 721.34,522.21 a 5,5 0 0 1 3.66,-0.68 50.07,50.07 0 0 1 -7.66,12 c -7,7.67 -18.77,15 -35.58,22.2 a 11.56,11.56 0 0 1 -2.07,0.68 4.32,4.32 0 0 1 -1.94,0.69 c -9.61,1.94 -16.13,4.58 -19.45,7.67 3.09,-7 2.52,-19.57 -1.71,-37.88 -3.78,-16.58 -2.41,-28.71 4,-36.49 a 18.13,18.13 0 0 1 3.43,-3.78 v 0.69 l 16,45.31 a 4.9,4.9 0 0 1 1.72,-1 c 8.69,-4.92 20.59,-8 35.58,-9.39 z"
         id="path1734" />
      <path
         class="cls-2"
         d="m 663.34,268.11 a 97.25,97.25 0 0 0 14.41,21.51 c 1.72,1.26 3.09,2.29 4,3 Q 696.87,306 695.14,305 c 2.52,1.38 6.06,3.55 10.76,6.41 4.92,3.09 8.35,5.26 10.41,6.41 l 1,-1 c 12.7,-20.59 12.81,-46.22 0.34,-77.11 l -0.34,-0.69 v 0 c -9.84,22.2 -15,35.92 -15.45,41.3 l -20.13,-6.41 -18.42,-5.72 z"
         id="path1736" />
      <path
         class="cls-3"
         d="m 624.09,197.41 -17.38,-3.32 c 1.14,2.41 1.6,3.66 1.6,3.66 5.15,7.56 10.41,13.28 15.78,17.05 a 45.92,45.92 0 0 0 20.48,9.72 33.09,33.09 0 0 0 4.35,0.69 c 1.83,0.46 3.09,0.8 4,1 7.78,1.6 13.5,3.32 17,5.38 -0.8,-4.69 -1,-6.64 -0.57,-5.72 4,-26.77 0.69,-51.49 -9.73,-74 H 659 a 46.24,46.24 0 0 0 -6.06,11 c -4,10.3 -5.72,23.23 -5,38.9 l -23.8,-4.35 z"
         id="path1738" />
      <path
         class="cls-4"
         d="m 652.93,236 c 10.52,0.68 19.1,2.51 25.85,5.72 -0.68,-10.53 0.34,-19.79 3,-27.8 2.06,-6.29 4.92,-11.1 8.69,-14.42 11,19.79 12.47,43.25 4.35,70 a 122.57,122.57 0 0 0 -13,-5.38 c -15.22,-5.15 -24.83,-8.81 -28.83,-11.1 a 48,48 0 0 1 -17.74,-16.7 159.84,159.84 0 0 1 17.74,-0.34 z"
         id="path1740" />
      <path
         class="cls-1"
         d="m 717.34,378.06 c -2.06,-2.4 -6.41,-6.75 -13.16,-13 q -8.41,-7.72 -10.64,-12.7 l -1.71,-0.34 c -2.07,9.83 -0.23,20.13 5.37,31.12 a 160.1,160.1 0 0 0 10.07,17.38 c 4.69,7.44 8,13.16 10.07,17.17 1,2.86 1.94,5.49 2.63,7.66 21.51,-22.77 32.26,-44.39 32.49,-65 L 721,384.47 a 48.74,48.74 0 0 0 -3.66,-6.41 z"
         id="path1742" />
      <path
         class="cls-1"
         d="m 717.34,328.52 c 0,0.12 0.23,0.35 0.57,0.57 l 1,1 19.45,-31.8 1.37,-0.34 0.34,0.34 q 11,33.46 -16.47,72.42 a 97,97 0 0 0 -6.29,-8.81 c -2.52,-2.86 -6,-6.52 -10.41,-11 l -10.41,-10.41 c -8,-8.7 -12.93,-16.94 -14.76,-24.83 a 41,41 0 0 1 -1.38,-7.32 2,2 0 0 1 1.38,0.34 c 1.6,0.23 7.66,2.86 18.42,8 2.29,1.37 7.89,5.26 17.16,11.78 z"
         id="path1744" />
      <path
         class="cls-5"
         d="m 609,159.89 q -8.06,-19.74 -14.07,-27.12 c -1.14,-1.37 -1.72,-2.17 -1.94,-2.4 l 0.91,-0.35 c 0,-0.22 0.35,-0.22 1,0 a 70.4,70.4 0 0 1 29.17,15.45 68.54,68.54 0 0 1 13,16.13 c 3,7.78 4.35,17.85 4.35,30.09 -4.47,0 -10.19,-3.2 -17.4,-9.72 a 46,46 0 0 0 -6.4,-5.72 c -1.26,-1.95 -2.86,-4.81 -4.69,-8.36 -2,-4.23 -3.32,-6.86 -4,-8 z"
         id="path1746" />
      <path
         class="cls-1"
         d="m 126.08,362.27 a 42.33,42.33 0 0 1 5,-10.29 99.15,99.15 0 0 1 10.3,-12.47 q 22.82,-23.17 27.92,-41.19 a 8.3,8.3 0 0 1 0.57,-2.75 1.08,1.08 0 0 1 -0.57,0.35 c -18,6.52 -30.67,14 -38.22,22.53 a 26.82,26.82 0 0 0 -2.4,3 l -17.05,-29.86 c -0.91,4.23 -2.51,14.19 -4.69,29.86 -1.6,16.36 4.81,30 19.11,40.84 z"
         id="path1748" />
      <path
         class="cls-1"
         d="M 128.37,420.62 Q 96.27,390.41 98.51,355 a 4.3,4.3 0 0 0 0.68,-2.4 11.29,11.29 0 0 1 0.69,-2.29 q 3.44,5.33 13.38,15.45 c 6.53,6.17 11,11.66 13.39,16.36 a 50.87,50.87 0 0 1 4.46,-9 c 0.8,-1.6 8.58,-11.44 23.11,-29.86 0,-0.8 0.23,-1.38 0.69,-1.6 l 0.23,0.34 q 3.77,35.18 -24,75 c -0.91,1.37 -1.83,2.52 -2.74,3.66 z"
         id="path1750" />
      <path
         class="cls-1"
         d="m 131.11,460.55 c -1.37,-1.37 -4,-4 -7.78,-8.12 -3.31,-3.09 -6.29,-5.61 -8.69,-7.67 Q 98.5,428.64 97.93,400.83 l 31.47,33.52 a 12.72,12.72 0 0 0 1.71,-2.29 c 16.71,-23.22 25.51,-35.93 26.43,-37.87 h 0.69 q 6.35,25.4 -20.83,71.05 a 49.87,49.87 0 0 1 -6.29,-4.69 z"
         id="path1752" />
      <path
         class="cls-2"
         d="m 134.43,302.67 c -1.14,-1.15 -2.29,-2.41 -3.32,-3.66 -6.29,-8.59 -8.92,-19.46 -7.78,-32.84 a 175.2,175.2 0 0 1 7.78,-26.2 c 2.18,-5.83 4,-10.52 5.27,-14.07 l 0.68,1 c 0.46,2.4 2.52,8.81 6.06,19.1 2.64,8 3.66,14.76 3,20.14 -0.8,0 6.87,-2.17 23.23,-6.41 A 62.25,62.25 0 0 1 186,257 c -1.83,9.84 -7.32,18.19 -16.7,24.82 a 9.4,9.4 0 0 0 -1.38,1 c -2.29,1.59 -8.12,4.45 -17.73,8.69 -7.44,3.2 -12.7,6.86 -15.79,11.1 z"
         id="path1754" />
      <path
         class="cls-5"
         d="m 223.9,182.31 q 11.32,-6 16.47,-15.44 4.29,-7.05 10.3,-24.37 c 1.6,-5.38 3.31,-10.19 5,-14.42 -2.17,0.34 -3.89,0.69 -5,0.91 -5.27,1.61 -14.3,7.56 -26.77,17.85 l -0.69,0.58 a 72.7,72.7 0 0 0 -10.07,18.19 c -3.54,8.69 -5.26,16.58 -5,23.79 2.74,-1.14 4.34,-1.83 5,-2.06 a 82.08,82.08 0 0 0 10.76,-5 z"
         id="path1756" />
      <path
         class="cls-5"
         d="m 223.9,182.31 q 11.32,-6 16.47,-15.44 4.29,-7.05 10.3,-24.37 c 1.6,-5.38 3.31,-10.19 5,-14.42 -2.17,0.34 -3.89,0.69 -5,0.91 -5.27,1.61 -14.3,7.56 -26.77,17.85 l -0.69,0.58 a 72.7,72.7 0 0 0 -10.07,18.19 c -3.54,8.69 -5.26,16.58 -5,23.79 2.74,-1.14 4.34,-1.83 5,-2.06 a 82.08,82.08 0 0 0 10.76,-5 z"
         id="path1758" />
      <path
         class="cls-3"
         d="m 213.14,217.2 a 96.63,96.63 0 0 1 -14.76,3 c -8.46,1.37 -13.38,2.17 -14.64,2.4 -5.61,-12.59 -6.41,-26.2 -2.4,-41 q -0.69,2.4 14.76,-39.12 v 0.91 c 6.06,20.37 7.78,38.21 5.37,53.66 l 11.67,-3.66 10.76,-3.32 16.1,-4.67 q 0,12.36 -13.73,25.4 a 9.25,9.25 0 0 1 -2.4,1.71 41.53,41.53 0 0 1 -10.76,4.69 z"
         id="path1760" />
      <path
         class="cls-4"
         d="m 169.33,249.35 c -2.29,0.46 4.8,-0.34 21,-2.29 a 32.58,32.58 0 0 0 22.77,-12.81 29.14,29.14 0 0 0 5,-8.35 c -2.18,0.23 -3.89,0.46 -5,0.69 -18.3,2.17 -31.35,3.32 -39.13,3.32 a 102.08,102.08 0 0 0 -1.37,-15.79 77.29,77.29 0 0 0 -3.31,-11 c -2.75,-7.44 -4.24,-12.93 -4.47,-16.82 l -0.23,-0.68 a 43.3,43.3 0 0 0 -3.43,9.72 50.28,50.28 0 0 1 -3.32,10.07 c -7.55,19.91 -7.43,35.81 0.69,47.59 a 42.54,42.54 0 0 1 10.8,-3.65 z"
         id="path1762" />
      <path
         class="cls-1"
         d="m 448.49,246.81 v 91.32 l -10.4,25.16 H 412.31 L 401.9,338.13 v -91.32 a 7.77,7.77 0 0 1 7.77,-7.77 h 31.06 a 7.76,7.76 0 0 1 7.76,7.77 z"
         id="path1764" />
      <path
         class="cls-1"
         d="m 337.52,275.46 64.38,62.67 10.48,25.16 -18.25,18.25 L 369,371.05 306.34,306.68 a 7.77,7.77 0 0 1 0,-10.95 l 20.19,-20.19 a 7.76,7.76 0 0 1 11,-0.12 z"
         id="path1766" />
      <path
         class="cls-1"
         d="M 277.65,371.05 H 369 l 25.16,10.41 v 25.78 L 369,417.65 h -91.35 a 7.76,7.76 0 0 1 -7.76,-7.77 v -31.06 a 7.76,7.76 0 0 1 7.76,-7.77 z"
         id="path1768" />
      <path
         class="cls-1"
         d="m 304.6,482 64.4,-64.35 25.16,-10.49 18.25,18.25 -10.51,25.16 -64.61,62.9 a 7.77,7.77 0 0 1 -10.72,0 l -21.82,-20.34 a 7.77,7.77 0 0 1 -0.27,-11 z"
         id="path1770" />
      <path
         class="cls-1"
         d="m 401.9,541.9 v -91.33 l 10.41,-25.16 h 25.78 l 10.4,25.16 v 91.33 a 7.76,7.76 0 0 1 -7.76,7.76 h -31.06 a 7.77,7.77 0 0 1 -7.77,-7.76 z"
         id="path1772" />
      <path
         class="cls-1"
         d="M 512.87,513.24 448.49,450.57 438,425.41 l 18.25,-18.25 25.16,10.49 62.68,64.35 a 7.77,7.77 0 0 1 0,11 l -20.19,20.16 a 7.77,7.77 0 0 1 -11,0.13 z"
         id="path1774" />
      <path
         class="cls-1"
         d="m 572.74,417.65 h -91.32 l -25.16,-10.41 v -25.78 l 25.16,-10.41 h 91.32 a 7.77,7.77 0 0 1 7.77,7.77 v 31.06 a 7.77,7.77 0 0 1 -7.77,7.77 z"
         id="path1776" />
      <path
         class="cls-1"
         d="m 544.09,306.68 -62.67,64.37 -25.16,10.49 -18.26,-18.25 10.48,-25.16 64.38,-62.67 a 7.77,7.77 0 0 1 11,0 L 544,295.65 a 7.76,7.76 0 0 1 0.12,11 z"
         id="path1778" />
    </g>
    <text
       id="text1825"
       y="178.80278"
       x="109.18379"
       style="font-style:normal;font-variant:normal;font-weight:normal;font-stretch:normal;font-size:21.1667px;line-height:1.25;font-family:Lato;-inkscape-font-specification:'Lato, Normal';font-variant-ligatures:normal;font-variant-caps:normal;font-variant-numeric:normal;font-variant-east-asian:normal;text-align:center;text-anchor:middle;stroke-width:0.264583"
       xml:space="preserve"><tspan
         style="font-style:normal;font-variant:normal;font-weight:normal;font-stretch:normal;font-size:24.6944px;font-family:'Kelson Sans';-inkscape-font-specification:'Kelson Sans, Normal';font-variant-ligatures:normal;font-variant-caps:normal;font-variant-numeric:normal;font-variant-east-asian:normal;fill:#ffffff;fill-opacity:1;stroke-width:0.264583"
         y="178.80278"
         x="109.18379"
         id="tspan1823"
         sodipodi:role="line">2021</tspan></text>
  </g>
</svg>
